<?xml version="1.0" encoding="utf-8" ?>
<svg baseProfile="full" height="200mm" version="1.1" viewBox="0,0,200,200" width="200mm" xmlns="http://www.w3.org/2000/svg" xmlns:ev="http://www.w3.org/2001/xml-events" xmlns:xlink="http://www.w3.org/1999/xlink"><defs /><rect fill="#1a1a1a" height="200" width="200" x="0" y="0" /><text alignment-baseline="middle" fill="#e1ed5e" style="dominant-baseline: central; font-size:9.0px; font-family:Arial;" text-anchor="middle" x="100.0" y="100.0">2023</text><line stroke="#e1ed5e" stroke-width="0.3" x1="100.0" x2="100.0" y1="15.0" y2="10.0" /><path d="M 100.0 14.0 a86.0,86.0 0 0,1 42.46469731375804,11.215312516191453" fill="none" id="id61" stroke="none" /><text fill="#e1ed5e" style="font-size:6.75px; font-family:Arial;" text-anchor="middle"><textPath startOffset="22.20632615414155" xlink:href="#id61">January</textPath></text><path d="M 102.88285421437855 79.19881850522331 l 0.947253338642325 -6.834889020872541 a27.900217157105494,27.900217157105494 0 0,0 0.4751420527694071,0.07002358748982045 l -1.0647643718403879 6.817570949221752" fill="#ff0000" stroke="none" /><line stroke="#e1ed5e" stroke-width="0.3" x1="143.23703022742887" x2="145.7803849466894" y1="26.81831364943548" y2="22.513508569990506" /><path d="M 143.74570117128098 25.957352633546492 a86.0,86.0 0 0,1 28.547481713284135,27.462654790039103" fill="none" id="id62" stroke="none" /><text fill="#e1ed5e" style="font-size:6.75px; font-family:Arial;" text-anchor="middle"><textPath startOffset="19.985693538727396" xlink:href="#id62">February</textPath></text><path d="M 111.60114157652 82.49532879139004 l 8.281809272766825 -12.496214047211652 a35.991455244378926,35.991455244378926 0 0,0 0.513470049175856,0.3466972692844483 l -8.495684016349223 12.351804865628534" fill="#ff7e0b" stroke="none" /><path d="M 113.6212207817346 84.01681056812373 l 12.98999307777645 -15.242504574866944 a41.02682865247316,41.02682865247316 0 0,0 0.5335562536593828,0.4626947254227857 l -13.250443130082598 15.016644856024486" fill="#ffc612" stroke="none" /><path d="M 114.68862486808459 84.99185889309783 l 5.057371250114919 -5.1673823814940025 a28.230411097445536,28.230411097445536 0 0,0 0.3443628890345083,0.3428840853508283 l -5.14556993931675 5.079562445493056" fill="#ff0500" stroke="none" /><path d="M 116.15771136456269 86.58626213691792 l 5.716653366199353 -4.74582618652807 a28.429871593911564,28.429871593911564 0 0,0 0.309346120442041,0.37922176616493347 l -5.797497978717803 4.6467202507550365" fill="#ff0901" stroke="none" /><path d="M 116.38621287248628 86.86637796730983 l 5.922740465803943 -4.747102657637186 a28.590378005568468,28.590378005568468 0 0,0 0.3044819702486414,0.3866611815875812 l -6.0035765166465485 4.644449082096567" fill="#ff0b01" stroke="none" /><path d="M 116.82858285166822 87.43820079747576 l 5.950457183502013 -4.441755373059263 a28.425438134331976,28.425438134331976 0 0,0 0.28931328023750735,0.3946229891071562 l -6.026033076253147 4.338669940280614" fill="#ff0801" stroke="none" /><path d="M 117.04232023915458 87.72973835380427 l 6.115873943880108 -4.403354263590733 a28.536142439478855,28.536142439478855 0 0,0 0.2835777526951465,0.4011006205186388 l -6.190764316379138 4.2974271427403" fill="#ff0a01" stroke="none" /><path d="M 117.2510076193507 88.02491185347247 l 30.416704436580375 -21.11428646906102 a58.02686864804883,58.02686864804883 0 0,0 0.5625167043141316,0.8254238526654107 l -30.77564560656324 20.587584593125204" fill="#5fff29" stroke="none" /><line stroke="#e1ed5e" stroke-width="0.3" x1="172.23445277983987" x2="176.4835382374775" y1="55.19839476539836" y2="52.563006222186495" /><path d="M 173.08426987136738 54.67131705675599 a86.0,86.0 0 0,1 12.851231095245387,41.99856678651699" fill="none" id="id63" stroke="none" /><text fill="#e1ed5e" style="font-size:6.75px; font-family:Arial;" text-anchor="middle"><textPath startOffset="22.20632615414155" xlink:href="#id63">March</textPath></text><path d="M 117.84615892207809 88.93136811851018 l 6.143131123352588 -3.8101228001501544 a28.228768619268934,28.228768619268934 0 0,0 0.2525590313044874,0.4151406415386136 l -6.2078059529433 3.7038143854044594" fill="#ff0500" stroke="none" /><path d="M 118.89224826269711 90.83032412892265 l 6.7594064308571555 -3.280793539761964 a28.513533226655547,28.513533226655547 0 0,0 0.2105137948292273,0.4433957396214202 l -6.814878419528139 3.1639553845000035" fill="#ff0a01" stroke="none" /><path d="M 119.196687751892 91.48605970444005 l 7.279155024981712 -3.2283846091475508 a28.962949520265546,28.962949520265546 0 0,0 0.19820213887712534,0.45747786338891067 l -7.333647873701518 3.102607601172037" fill="#ff1101" stroke="none" /><path d="M 119.7369772167798 92.82701384747503 l 6.893459522320464 -2.505281794344776 a28.334590721706704,28.334590721706704 0 0,0 0.1626498865722237,0.45983313200895565 l -6.935562489702497 2.386251035909206" fill="#ff0701" stroke="none" /><path d="M 119.85752413597 93.16781622104841 l 6.933032285597846 -2.3853804933721365 a28.33191494572205,28.33191494572205 0 0,0 0.15469590668116784,0.4625210709100384 l -6.973065486050784 2.265686319539784" fill="#ff0701" stroke="none" /><path d="M 120.28053869075195 94.5502522615342 l 7.065239828597542 -1.8985577930026032 a28.315882416289366,28.315882416289366 0 0,0 0.12243742808229863,0.47180135577133825 l -7.096873588550142 1.7766600116824145" fill="#ff0701" stroke="none" /><path d="M 120.37134235888165 94.90015583598534 l 30.753640473381765 -7.698990627488077 a52.702694823124645,52.702694823124645 0 0,0 0.21273618375547068,0.8819288234377792 l -30.881609457398056 7.168476572390891" fill="#9eff22" stroke="none" /><path d="M 120.53481517161879 95.60439243477599 l 7.303210896365548 -1.5632986612345645 a28.468653968487914,28.468653968487914 0 0,0 0.09844827121637666,0.48006873364293645 l -7.3290384634969215 1.4373542714282164" fill="#ff0901" stroke="none" /><path d="M 120.6074358757038 95.95851677861258 l 7.519290470332398 -1.4746660601484907 a28.662530206543103,28.662530206543103 0 0,0 0.09078416417142884,0.484972635132203 l -7.543560358413686 1.345015347553725" fill="#ff0c01" stroke="none" /><path d="M 120.73433829027371 96.67025291283417 l 7.4294931992964415 -1.1931093721510369 a28.52468465600431,28.52468465600431 0 0,0 0.07368076352812691,0.4854641721329474 l -7.448929856263868 1.0650460876260073" fill="#ff0a01" stroke="none" /><path d="M 120.91429891909075 98.10471618934814 l 7.606440447201467 -0.689306559691039 a28.63760956124726,28.63760956124726 0 0,0 0.04026381926055228,0.4913205794931011 l -7.617178750281514 0.5582720629901692" fill="#ff0c01" stroke="none" /><line stroke="#e1ed5e" stroke-width="0.3" x1="184.98032266829074" x2="189.97916517819016" y1="98.17113171792111" y2="98.06355123074" /><path d="M 185.9800911702706 98.14961562048488 a86.0,86.0 0 0,1 -9.607161424134198,41.387399972396054" fill="none" id="id64" stroke="none" /><text fill="#e1ed5e" style="font-size:6.75px; font-family:Arial;" text-anchor="middle"><textPath startOffset="21.466115282336823" xlink:href="#id64">April</textPath></text><path d="M 120.99980553446 99.90962569577887 l 62.99941660337998 -0.27112291266339017 a84.0,84.0 0 0,0 -0.006222810841987947,1.4459620871852612 l -62.994749495248485 -0.8133486527255557" fill="#4dd2ff" stroke="none" /><path d="M 120.9764740272857 100.99374915477107 l 14.994914492366382 0.7103759947105678 a36.01173190165746,36.01173190165746 0 0,0 -0.03466326250440339,0.6189358374787671 l -14.98046487897445 -0.9683835485247583" fill="#ff7e0b" stroke="none" /><path d="M 120.95626037817324 101.35467743843564 l 10.909575263511814 0.7052286622563573 a31.932345580720394,31.932345580720394 0 0,0 -0.040179164769631494,0.5482127807865878 l -10.895819540077843 -0.8929145795397153" fill="#ff4006" stroke="none" /><path d="M 120.92983693683757 101.71520430193887 l 9.190704202124719 0.7531800382824124 a30.221514186998796,30.221514186998796 0 0,0 -0.046951861974711,0.5181098844553801 l -9.176377743872933 -0.9112713112863632" fill="#ff2503" stroke="none" /><path d="M 120.89721153311464 102.0752229133903 l 14.89252451279624 1.4789201926873137 a35.96577733699707,35.96577733699707 0 0,0 -0.06648136671180255,0.6155348886280647 l -14.864860844583385 -1.7350514032001698" fill="#ff7d0b" stroke="none" /><path d="M 120.8583938346157 102.4346265915055 l 13.909975144428453 1.6235955482633708 a35.004408985136,35.004408985136 0 0,0 -0.075006932097009,0.5978790487919559 l -13.879966703084596 -1.8627923513427216" fill="#ff6f0a" stroke="none" /><path d="M 120.76222939487914 103.15116336523771 l 9.95185538696823 1.510431346996507 a31.065824779774296,31.065824779774296 0 0,0 -0.0847923131283941,0.5280018147910935 l -9.924381319478547 -1.6815123914808054" fill="#ff3204" stroke="none" /><path d="M 120.70491114924044 103.5080841355445 l 8.926995740694693 1.5125228942193853 a30.054224343361444,30.054224343361444 0 0,0 -0.09081178368202113,0.5093207097647424 l -8.899637514673483 -1.665962354717346" fill="#ff2203" stroke="none" /><path d="M 120.64145759157962 103.86396538481128 l 10.201466502723118 1.9096574583431527 a31.378666119226857,31.378666119226857 0 0,0 -0.10395313833566047,0.5300548127958994 l -10.167083431411793 -2.084975998206997" fill="#ff3705" stroke="none" /><path d="M 120.49622156327973 104.57218783832717 l 14.946224210724456 3.334124016673168 a36.31358877323675,36.31358877323675 0 0,0 -0.1413453426359525,0.608912036724378 l -14.88661830215795 -3.5909047107461105" fill="#ff820c" stroke="none" /><path d="M 120.32669344350535 105.2749913415812 l 7.817455573242343 2.028712174789298 a29.076402957242543,29.076402957242543 0 0,0 -0.12989110926097908,0.48337313823879396 l -7.781376387639587 -2.1629762462036406" fill="#ff1302" stroke="none" /><path d="M 119.54520255179757 107.68017299344265 l 16.610212425944717 6.526885794660316 a38.84655134785281,38.84655134785281 0 0,0 -0.2499079777243277,0.6202511059076977 l -16.495401833962998 -6.811836268410827" fill="#ffa70f" stroke="none" /><path d="M 119.26925614724726 108.34839909993367 l 16.347391883854975 7.08250233670458 a38.815697032497866,38.815697032497866 0 0,0 -0.2708945929753541,0.610795793075465 l -16.223056206148346 -7.362846466272732" fill="#ffa70f" stroke="none" /><line stroke="#e1ed5e" stroke-width="0.3" x1="174.80103733775053" x2="179.2010983576182" y1="140.37084112569926" y2="142.7455964860345" /><path d="M 175.68104954172406 140.8457921977663 a86.0,86.0 0 0,1 -30.038265399797805,32.042727171017184" fill="none" id="id65" stroke="none" /><text fill="#e1ed5e" style="font-size:6.75px; font-family:Arial;" text-anchor="middle"><textPath startOffset="22.206326154141568" xlink:href="#id65">May</textPath></text><path d="M 118.48025628344425 109.97397251340804 l 13.071291562065337 7.054702096938889 a35.85353442036859,35.85353442036859 0 0,0 -0.2977953432121228,0.5405850484346553 l -12.947919809401705 -7.278657663771349" fill="#ff7b0b" stroke="none" /><path d="M 118.30583269289576 110.29060199501025 l 12.945850893889835 7.2774946253862005 a35.85116101149514,35.85116101149514 0 0,0 -0.30703617826366847,0.5353434569591908 l -12.818662719473787 -7.499257928203706" fill="#ff7b0b" stroke="none" /><path d="M 118.12598468904814 110.60418214915192 l 12.82698511304097 7.504126749336313 a35.860802985043556,35.860802985043556 0 0,0 -0.316290786935627,0.5301215519161843 l -12.695913450407117 -7.723810395138601" fill="#ff7c0b" stroke="none" /><path d="M 117.75023020441432 111.22182372390056 l 6.933532442341355 4.383429282655188 a29.20294608083212,29.20294608083212 0 0,0 -0.2722759436994837,0.4225783110773019 l -6.8570516352648205 -4.502129193653943" fill="#ff1502" stroke="none" /><path d="M 117.55443506779139 111.5257021239791 l 12.434923815758454 8.164388502468482 a35.87563679050266,35.87563679050266 0 0,0 -0.34337578982399625,0.5133002159479101 l -12.292544920523737 -8.3772256326222" fill="#ff7c0b" stroke="none" /><path d="M 117.35343817320211 111.8261652097733 l 17.359379888811652 11.830214419487627 a42.00719027702495,42.00719027702495 0 0,0 -0.41234876649397406,0.5940191525588111 l -17.153170215155544 -12.127274834233457" fill="#ffd413" stroke="none" /><path d="M 117.14729908036423 112.12312394758627 l 10.92341669915043 7.722845093812956 a34.37771911524193,34.37771911524193 0 0,0 -0.3457747128178385,0.48025083379296446 l -10.788862193956989 -7.909729533057052" fill="#ff6509" stroke="none" /><path d="M 116.93607887273984 112.41649034213515 l 12.426141178993094 9.110081684097361 a36.40787373037546,36.40787373037546 0 0,0 -0.3748948808467344,0.5022329573400438 l -12.267485031451267 -9.322627520946721" fill="#ff840c" stroke="none" /><path d="M 116.71984013943494 112.70617746262583 l 5.960837941873274 4.529915602288457 a28.48676995326639,28.48676995326639 0 0,0 -0.3000513958637947,0.38785687648915473 l -5.8819797287914115 -4.631850472890864" fill="#ff0901" stroke="none" /><path d="M 116.498646956653 112.99209946851258 l 7.522421698684373 5.923640357307888 a30.574776409690422,30.574776409690422 0 0,0 -0.32916234710280035,0.41068063903533253 l -7.419341439526718 -6.052248829921471" fill="#ff2b04" stroke="none" /><path d="M 116.0416608686014 113.55231037782055 l 11.354037824711895 9.59211430177963 a35.86347307002619,35.86347307002619 0 0,0 -0.40245219341706334,0.46814282248085715 l -11.187243121724054 -9.786134223422014" fill="#ff7c0b" stroke="none" /><path d="M 115.56566222782051 114.09645910891815 l 9.917509134633965 8.981420766591109 a34.3799441860608,34.3799441860608 0 0,0 -0.40102337244200886,0.43523166770782895 l -9.761439354196234 -9.150803689100272" fill="#ff6509" stroke="none" /><path d="M 115.32070863581623 114.36230785411682 l 11.487783111645191 10.769154451841851 a36.746232832897704,36.746232832897704 0 0,0 -0.4365687787291034,0.45774061911848846 l -11.300707781537124 -10.965302187542846" fill="#ff890c" stroke="none" /><path d="M 114.81725581225074 114.88116024355365 l 10.084358457292424 10.127850666675432 a35.29222322179594,35.29222322179594 0 0,0 -0.43417845476738487,0.4249350004411771 l -9.908530050149244 -10.29993577003918" fill="#ff730a" stroke="none" /><path d="M 114.0293411484842 115.62618273729858 l 5.140676774882845 5.725796659124307 a28.69488824385767,28.69488824385767 0 0,0 -0.3703794709994513,0.326816819874341 l -5.041354950976806 -5.813436620770937" fill="#ff0d01" stroke="none" /><line stroke="#e1ed5e" stroke-width="0.3" x1="143.8653032363475" x2="146.44561519142675" y1="172.8068346515853" y2="177.08958963109032" /><path d="M 144.38136562736335 173.6633856474863 a86.0,86.0 0 0,1 -40.68145358897372,12.25698825130547" fill="none" id="id66" stroke="none" /><text fill="#e1ed5e" style="font-size:6.75px; font-family:Arial;" text-anchor="middle"><textPath startOffset="21.466115282336833" xlink:href="#id66">June</textPath></text><line stroke="#e1ed5e" stroke-width="0.3" x1="102.19456741930631" x2="102.32365962044197" y1="184.97166512339345" y2="189.96999836594603" /><path d="M 102.22038585953345 185.97133177190398 a86.0,86.0 0 0,1 -42.740103519485714,-10.115201625700543" fill="none" id="id67" stroke="none" /><text fill="#e1ed5e" style="font-size:6.75px; font-family:Arial;" text-anchor="middle"><textPath startOffset="22.20632615414155" xlink:href="#id67">July</textPath></text><line stroke="#e1ed5e" stroke-width="0.3" x1="58.666819895761336" x2="56.23545636021788" y1="174.27360380694188" y2="178.64263932499728" /><path d="M 58.180547188652646 175.14741091055294 a86.0,86.0 0 0,1 -31.652253787137756,-30.449443065178592" fill="none" id="id68" stroke="none" /><text fill="#e1ed5e" style="font-size:6.75px; font-family:Arial;" text-anchor="middle"><textPath startOffset="22.20632615414155" xlink:href="#id68">August</textPath></text><line stroke="#e1ed5e" stroke-width="0.3" x1="26.63291911575756" x2="22.317208475507996" y1="142.92168965132927" y2="145.44649492493687" /><path d="M 25.769776987707644 143.4266507060508 a86.0,86.0 0 0,1 -11.730757126820373,-40.83630448921669" fill="none" id="id69" stroke="none" /><text fill="#e1ed5e" style="font-size:6.75px; font-family:Arial;" text-anchor="middle"><textPath startOffset="21.46611528233685" xlink:href="#id69">September</textPath></text><line stroke="#e1ed5e" stroke-width="0.3" x1="15.007084014347285" x2="10.007500721073583" y1="101.09737516637583" y2="101.16192664675087" /><path d="M 14.007167355692545 101.11028546245083 a86.0,86.0 0 0,1 10.666146001902534,-42.60595125391555" fill="none" id="id70" stroke="none" /><text fill="#e1ed5e" style="font-size:6.75px; font-family:Arial;" text-anchor="middle"><textPath startOffset="22.20632615414155" xlink:href="#id70">October</textPath></text><line stroke="#e1ed5e" stroke-width="0.3" x1="26.266209847984243" x2="21.928928074336255" y1="57.711370442889674" y2="55.22380399835377" /><path d="M 25.398753493254645 57.213857153982495 a86.0,86.0 0 0,1 29.58750427330803,-30.492523968695096" fill="none" id="id71" stroke="none" /><text fill="#e1ed5e" style="font-size:6.75px; font-family:Arial;" text-anchor="middle"><textPath startOffset="21.46611528233685" xlink:href="#id71">November</textPath></text><line stroke="#e1ed5e" stroke-width="0.3" x1="56.762969772571076" x2="54.21961505331055" y1="26.818313649435495" y2="22.513508569990535" /><path d="M 56.25429882871897 25.957352633546506 a86.0,86.0 0 0,1 42.265352541879196,-11.944610805530505" fill="none" id="id72" stroke="none" /><text fill="#e1ed5e" style="font-size:6.75px; font-family:Arial;" text-anchor="middle"><textPath startOffset="22.20632615414155" xlink:href="#id72">December</textPath></text></svg>