<?xml version="1.0" encoding="utf-8" ?>
<svg baseProfile="full" height="200mm" version="1.1" viewBox="0,0,200,200" width="200mm" xmlns="http://www.w3.org/2000/svg" xmlns:ev="http://www.w3.org/2001/xml-events" xmlns:xlink="http://www.w3.org/1999/xlink"><defs /><rect fill="#1a1a1a" height="200" width="200" x="0" y="0" /><text alignment-baseline="middle" fill="#e1ed5e" style="dominant-baseline: central; font-size:9.0px; font-family:Arial;" text-anchor="middle" x="100.0" y="100.0">2021</text><line stroke="#e1ed5e" stroke-width="0.3" x1="100.0" x2="100.0" y1="15.0" y2="10.0" /><path d="M 100.0 14.0 a86.0,86.0 0 0,1 42.46469731375804,11.215312516191453" fill="none" id="id37" stroke="none" /><text fill="#e1ed5e" style="font-size:6.75px; font-family:Arial;" text-anchor="middle"><textPath startOffset="22.20632615414155" xlink:href="#id37">January</textPath></text><line stroke="#e1ed5e" stroke-width="0.3" x1="143.23703022742887" x2="145.7803849466894" y1="26.81831364943548" y2="22.513508569990506" /><path d="M 143.74570117128098 25.957352633546492 a86.0,86.0 0 0,1 28.547481713284135,27.462654790039103" fill="none" id="id38" stroke="none" /><text fill="#e1ed5e" style="font-size:6.75px; font-family:Arial;" text-anchor="middle"><textPath startOffset="19.985693538727396" xlink:href="#id38">February</textPath></text><line stroke="#e1ed5e" stroke-width="0.3" x1="172.23445277983987" x2="176.4835382374775" y1="55.19839476539836" y2="52.563006222186495" /><path d="M 173.08426987136738 54.67131705675599 a86.0,86.0 0 0,1 12.851231095245387,41.99856678651699" fill="none" id="id39" stroke="none" /><text fill="#e1ed5e" style="font-size:6.75px; font-family:Arial;" text-anchor="middle"><textPath startOffset="22.20632615414155" xlink:href="#id39">March</textPath></text><line stroke="#e1ed5e" stroke-width="0.3" x1="184.98032266829074" x2="189.97916517819016" y1="98.17113171792111" y2="98.06355123074" /><path d="M 185.9800911702706 98.14961562048488 a86.0,86.0 0 0,1 -9.607161424134198,41.387399972396054" fill="none" id="id40" stroke="none" /><text fill="#e1ed5e" style="font-size:6.75px; font-family:Arial;" text-anchor="middle"><textPath startOffset="21.466115282336823" xlink:href="#id40">April</textPath></text><line stroke="#e1ed5e" stroke-width="0.3" x1="174.80103733775053" x2="179.2010983576182" y1="140.37084112569926" y2="142.7455964860345" /><path d="M 175.68104954172406 140.8457921977663 a86.0,86.0 0 0,1 -30.038265399797805,32.042727171017184" fill="none" id="id41" stroke="none" /><text fill="#e1ed5e" style="font-size:6.75px; font-family:Arial;" text-anchor="middle"><textPath startOffset="22.206326154141568" xlink:href="#id41">May</textPath></text><path d="M 117.35343817320211 111.8261652097733 l 6.206011742755832 4.229324438828527 a28.510110981876068,28.510110981876068 0 0,0 -0.2798594483100358,0.4031584081945671 l -6.13229138728366 -4.335524109210114" fill="#ff4b06" stroke="none" /><path d="M 117.14729908036423 112.12312394758627 l 5.6846943792087545 4.019073455259919 a27.961946683491803,27.961946683491803 0 0,0 -0.281244199241403,0.390623594433509 l -5.614670387591748 -4.1163306551445595" fill="#ff4306" stroke="none" /><path d="M 115.07121518719521 114.62390073753431 l 5.165206834162171 5.011903227007061 a28.197119951519454,28.197119951519454 0 0,0 -0.3409963313391413,0.3454274833283733 l -5.078169877767494 -5.100071204316099" fill="#ff4606" stroke="none" /><path d="M 114.0293411484842 115.62618273729858 l 4.6743879244546775 5.206434081221447 a27.996917772161677,27.996917772161677 0 0,0 -0.36137041224713723,0.3188673729907238 l -4.584075159300952 -5.28612459598446" fill="#ff4306" stroke="none" /><path d="M 111.1453310114006 117.79835938074945 l 4.765988666928306 7.6109699220058475 a29.980061866544503,29.980061866544503 0 0,0 -0.4397372686767581,0.27012254620709336 l -4.6342721983192385 -7.691880935041319" fill="#ff5f08" stroke="none" /><line stroke="#e1ed5e" stroke-width="0.3" x1="143.8653032363475" x2="146.44561519142675" y1="172.8068346515853" y2="177.08958963109032" /><path d="M 144.38136562736335 173.6633856474863 a86.0,86.0 0 0,1 -40.68145358897372,12.25698825130547" fill="none" id="id42" stroke="none" /><text fill="#e1ed5e" style="font-size:6.75px; font-family:Arial;" text-anchor="middle"><textPath startOffset="21.466115282336833" xlink:href="#id42">June</textPath></text><path d="M 109.89434966115114 118.52300852407294 l 3.2958468836355386 6.170087172006982 a27.995182798936366,27.995182798936366 0 0,0 -0.42700532075871817,0.22338900230317318 l -3.189150660350325 -6.225905593254872" fill="#ff4306" stroke="none" /><path d="M 109.57404056367764 118.69057910512821 l 6.308166159082717 12.314892319543153 a34.83652894090636,34.83652894090636 0 0,0 -0.5360613427214435,0.26879228569145913 l -6.095250908678513 -12.421652446143915" fill="#ffa20f" stroke="none" /><path d="M 108.92500713936063 119.00905698771935 l 3.8130917311470833 8.121369191640659 a29.971973366939533,29.971973366939533 0 0,0 -0.46889297528791285,0.21524576720653563 l -3.672730760091751 -8.185802029181268" fill="#ff5f08" stroke="none" /><path d="M 105.53697534728816 120.25689768951611 l 2.7581804851024354 10.090740231181352 a31.460908086852776,31.460908086852776 0 0,0 -0.5236137168659092,0.13829114167530204 l -2.5840763254250287 -10.136722722160238" fill="#ff740a" stroke="none" /><line stroke="#e1ed5e" stroke-width="0.3" x1="102.19456741930631" x2="102.32365962044197" y1="184.97166512339345" y2="189.96999836594603" /><path d="M 102.22038585953345 185.97133177190398 a86.0,86.0 0 0,1 -42.740103519485714,-10.115201625700543" fill="none" id="id43" stroke="none" /><text fill="#e1ed5e" style="font-size:6.75px; font-family:Arial;" text-anchor="middle"><textPath startOffset="22.20632615414155" xlink:href="#id43">July</textPath></text><path d="M 100.18074693466247 120.99922214144158 l 0.07441584498410772 8.64565068604117 a29.645970940445547,29.645970940445547 0 0,0 -0.5103255592931204,0.0 l 0.07441584498410177 -8.64565068604117" fill="#ff5b08" stroke="none" /><path d="M 99.45781275523022 120.99299961872073 l -0.32494626213947625 12.581625301966099 a33.58582080407758,33.58582080407758 0 0,0 -0.5778035013721716,-0.019900720870963343 l 0.541470115186291 -12.574167782669043" fill="#ff910d" stroke="none" /><path d="M 92.40401165467489 119.57807347666478 l -7.535219579185624 19.421446673873877 a41.83199762415187,41.83199762415187 0 0,0 -0.6690707785247465,-0.26623707082218206 l 7.868411433752228 -19.288862758645628" fill="#fffd17" stroke="none" /><line stroke="#e1ed5e" stroke-width="0.3" x1="58.666819895761336" x2="56.23545636021788" y1="174.27360380694188" y2="178.64263932499728" /><path d="M 58.180547188652646 175.14741091055294 a86.0,86.0 0 0,1 -31.652253787137756,-30.449443065178592" fill="none" id="id44" stroke="none" /><text fill="#e1ed5e" style="font-size:6.75px; font-family:Arial;" text-anchor="middle"><textPath startOffset="22.20632615414155" xlink:href="#id44">August</textPath></text><path d="M 82.44556493220864 111.52570212397912 l -7.234558862160829 4.74998882741887 a29.654550005094077,29.654550005094077 0 0,0 -0.2764865080828393,-0.42911320050463786 l 7.315250233620714 -4.624754026992784" fill="#ff5b08" stroke="none" /><line stroke="#e1ed5e" stroke-width="0.3" x1="26.63291911575756" x2="22.317208475507996" y1="142.92168965132927" y2="145.44649492493687" /><path d="M 25.769776987707644 143.4266507060508 a86.0,86.0 0 0,1 -11.730757126820373,-40.83630448921669" fill="none" id="id45" stroke="none" /><text fill="#e1ed5e" style="font-size:6.75px; font-family:Arial;" text-anchor="middle"><textPath startOffset="21.46611528233685" xlink:href="#id45">September</textPath></text><path d="M 80.20201598880116 107.00284435728193 l -8.16040228140666 2.886456875466424 a29.655853435006534,29.655853435006534 0 0,0 -0.16608572762669155,-0.4827228674889654 l 8.20887883997658 -2.7455613048881617" fill="#ff5b08" stroke="none" /><path d="M 79.23777060512086 103.15116336523772 l -8.860086187942727 1.3447293389013433 a29.96155255816064,29.96155255816064 0 0,0 -0.07300053665020642,-0.5105655833064284 l 8.881920775609531 -1.1920182836145143" fill="#ff5f08" stroke="none" /><line stroke="#e1ed5e" stroke-width="0.3" x1="15.007084014347285" x2="10.007500721073583" y1="101.09737516637583" y2="101.16192664675087" /><path d="M 14.007167355692545 101.11028546245083 a86.0,86.0 0 0,1 10.666146001902534,-42.60595125391555" fill="none" id="id46" stroke="none" /><text fill="#e1ed5e" style="font-size:6.75px; font-family:Arial;" text-anchor="middle"><textPath startOffset="22.20632615414155" xlink:href="#id46">October</textPath></text><path d="M 79.05617556472873 98.46500227214037 l -9.332864288932313 -0.6840166905623634 a30.357896914830594,30.357896914830594 0 0,0 0.04268250364594621,-0.5208346552978278 l 9.31970730146687 0.8445652630679695" fill="#ff6509" stroke="none" /><path d="M 79.71946130924805 94.55025226153421 l -42.07346038653892 -11.30590015814165 a64.56603547815118,64.56603547815118 0 0,0 0.2976593526841305,-1.070839063813885 l 41.872614263288426 12.02845052537448" fill="#34ff5f" stroke="none" /><path d="M 80.52162464483688 92.15188598940014 l -47.94289085279959 -19.31687148182924 a72.68812539809277,72.68812539809277 0 0,0 0.47758975837301054,-1.1565214819800629 l 47.603279407540384 20.13926753426261" fill="#3fffbb" stroke="none" /><path d="M 81.43458229118936 90.18545643968196 l -45.67297878315127 -24.144861528431342 a72.66232020683266,72.66232020683266 0 0,0 0.5940729462622449,-1.1007269453799335 l 45.25059773767055 24.92746945714375" fill="#3fffbb" stroke="none" /><path d="M 81.6062741919709 89.86733742301443 l -7.521052089761092 -4.143167286761195 a29.586737430653614,29.586737430653614 0 0,0 0.24957449785369099,-0.4439651834108903 l 7.448619950614971 4.27201598010687" fill="#ff5a08" stroke="none" /><line stroke="#e1ed5e" stroke-width="0.3" x1="26.266209847984243" x2="21.928928074336255" y1="57.711370442889674" y2="55.22380399835377" /><path d="M 25.398753493254645 57.213857153982495 a86.0,86.0 0 0,1 29.58750427330803,-30.492523968695096" fill="none" id="id47" stroke="none" /><text fill="#e1ed5e" style="font-size:6.75px; font-family:Arial;" text-anchor="middle"><textPath startOffset="21.46611528233685" xlink:href="#id47">November</textPath></text><path d="M 82.34701348167596 88.62581576622439 l -2.0193743557585235 -1.30112465307315 a23.40224856156266,23.40224856156266 0 0,0 0.2210992788002049,-0.3367493703623268 l 1.9966784416003982 1.3356920874131437" fill="#ff0000" stroke="none" /><path d="M 82.7489923806493 88.02491185347247 l -18.441928699583634 -12.801786808195834 a43.449732284439904,43.449732284439904 0 0,0 0.4317814666982198,-0.6107242637164334 l 18.218834613081533 13.117337572244052" fill="#eeff19" stroke="none" /><path d="M 84.31358615837235 86.03803664274999 l -47.05924152488297 -41.885890071750055 a84.0,84.0 0 0,0 0.9706254375358201,-1.071788850921776 l 46.331272446731106 42.68973170994139" fill="#4dd2ff" stroke="none" /><path d="M 84.5562425177563 85.77008943001954 l -15.186870004317717 -13.993213908456385 a41.65069141738025,41.65069141738025 0 0,0 0.49035295147147934,-0.5230743397589565 l 14.943749730875782 14.252557665093391" fill="#fffa17" stroke="none" /><path d="M 84.80347519578584 85.50635884689758 l -3.6806319152699998 -3.510391940516958 a26.08624644229421,26.08624644229421 0 0,0 0.3127066883510877,-0.3222717300397297 l 3.6196609632157934 3.5732278661068113" fill="#ff2803" stroke="none" /><path d="M 85.57189188830299 84.74124197986013 l -2.157387120958752 -2.281591444950984 a24.14006030377638,24.14006030377638 0 0,0 0.3043856025312731,-0.28289324441146757 l 2.1177936346326227 2.318389275437099" fill="#ff0b01" stroke="none" /><path d="M 88.09926311788651 82.69761687909137 l -9.900549770409315 -14.394327589303334 a38.47047659637627,38.47047659637627 0 0,0 0.5488368662960675,-0.3705771020780906 l 9.651308209706707 14.56261660368009" fill="#ffd213" stroke="none" /><line stroke="#e1ed5e" stroke-width="0.3" x1="56.762969772571076" x2="54.21961505331055" y1="26.818313649435495" y2="22.513508569990535" /><path d="M 56.25429882871897 25.957352633546506 a86.0,86.0 0 0,1 42.265352541879196,-11.944610805530505" fill="none" id="id48" stroke="none" /><text fill="#e1ed5e" style="font-size:6.75px; font-family:Arial;" text-anchor="middle"><textPath startOffset="22.20632615414155" xlink:href="#id48">December</textPath></text><path d="M 89.94658935756843 81.56283822128135 l -2.3569131831700583 -4.322392788084789 a25.92322243733596,25.92322243733596 0 0,0 0.39360704209967373,-0.21025125041454681 l 2.282161094542079 4.362322765001085" fill="#ff2503" stroke="none" /><path d="M 90.26544431104013 81.39251694778311 l -1.4067657038173969 -2.689015280061446 a24.034764063620234,24.034764063620234 0 0,0 0.3682349176546799,-0.18862422714452387 l 1.3602702985739532 2.712832032518475" fill="#ff0901" stroke="none" /><path d="M 92.57280143429618 80.3572730644239 l -9.870975235065757 -26.105787991930068 a48.909645622452494,48.909645622452494 0 0,0 0.790048392158865,-0.29098149032476306 l 9.420144517134322 26.271832750061154" fill="#adff20" stroke="none" /><path d="M 95.33964822691252 79.52364482259891 l -4.165299896130891 -18.30122794294201 a39.769247918982515,39.769247918982515 0 0,0 0.6687999646443391,-0.1461737681059254 l 3.8496572073330313 18.370215209143804" fill="#ffe315" stroke="none" /><path d="M 98.91598698831166 79.02799685794201 l -0.20758771654585825 -4.0161236043392226 a25.021484982614183,25.021484982614183 0 0,0 0.43032088993828405,-0.01853052272478228 l 0.13842599421825008 4.0191018535881975" fill="#ff1802" stroke="none" /></svg>