<?xml version="1.0" encoding="utf-8" ?>
<svg baseProfile="full" height="200mm" version="1.1" viewBox="0,0,200,200" width="200mm" xmlns="http://www.w3.org/2000/svg" xmlns:ev="http://www.w3.org/2001/xml-events" xmlns:xlink="http://www.w3.org/1999/xlink"><defs /><rect fill="#1a1a1a" height="200" width="200" x="0" y="0" /><text alignment-baseline="middle" fill="#e1ed5e" style="dominant-baseline: central; font-size:9.0px; font-family:Arial;" text-anchor="middle" x="100.0" y="100.0">2021</text><line stroke="#e1ed5e" stroke-width="0.3" x1="100.0" x2="100.0" y1="15.0" y2="10.0" /><path d="M 100.0 14.0 a86.0,86.0 0 0,1 42.46469731375804,11.215312516191453" fill="none" id="id37" stroke="none" /><text fill="#e1ed5e" style="font-size:6.75px; font-family:Arial;" text-anchor="middle"><textPath startOffset="22.20632615414155" xlink:href="#id37">January</textPath></text><line stroke="#e1ed5e" stroke-width="0.3" x1="143.23703022742887" x2="145.7803849466894" y1="26.81831364943548" y2="22.513508569990506" /><path d="M 143.74570117128098 25.957352633546492 a86.0,86.0 0 0,1 28.547481713284135,27.462654790039103" fill="none" id="id38" stroke="none" /><text fill="#e1ed5e" style="font-size:6.75px; font-family:Arial;" text-anchor="middle"><textPath startOffset="19.985693538727396" xlink:href="#id38">February</textPath></text><line stroke="#e1ed5e" stroke-width="0.3" x1="172.23445277983987" x2="176.4835382374775" y1="55.19839476539836" y2="52.563006222186495" /><path d="M 173.08426987136738 54.67131705675599 a86.0,86.0 0 0,1 12.851231095245387,41.99856678651699" fill="none" id="id39" stroke="none" /><text fill="#e1ed5e" style="font-size:6.75px; font-family:Arial;" text-anchor="middle"><textPath startOffset="22.20632615414155" xlink:href="#id39">March</textPath></text><line stroke="#e1ed5e" stroke-width="0.3" x1="184.98032266829074" x2="189.97916517819016" y1="98.17113171792111" y2="98.06355123074" /><path d="M 185.9800911702706 98.14961562048488 a86.0,86.0 0 0,1 -9.607161424134198,41.387399972396054" fill="none" id="id40" stroke="none" /><text fill="#e1ed5e" style="font-size:6.75px; font-family:Arial;" text-anchor="middle"><textPath startOffset="21.466115282336823" xlink:href="#id40">April</textPath></text><line stroke="#e1ed5e" stroke-width="0.3" x1="174.80103733775053" x2="179.2010983576182" y1="140.37084112569926" y2="142.7455964860345" /><path d="M 175.68104954172406 140.8457921977663 a86.0,86.0 0 0,1 -30.038265399797805,32.042727171017184" fill="none" id="id41" stroke="none" /><text fill="#e1ed5e" style="font-size:6.75px; font-family:Arial;" text-anchor="middle"><textPath startOffset="22.206326154141568" xlink:href="#id41">May</textPath></text><path d="M 117.35343817320211 111.8261652097733 l 12.29393630770852 8.37817384671982 a35.8773205566007,35.8773205566007 0 0,0 -0.3521770625233767,0.5073373251714209 l -12.147898338023008 -8.588552434078261" fill="#ff1402" stroke="none" /><path d="M 117.14729908036423 112.12312394758627 l 11.261221139060728 7.961672507733033 a34.791422358234854,34.791422358234854 0 0,0 -0.34993578352640287,0.4860301970696315 l -11.122505563158724 -8.154336310253795" fill="#ff0000" stroke="none" /><path d="M 115.07121518719521 114.62390073753431 l 10.232130789867389 9.928440616495275 a35.25729404817847,35.25729404817847 0 0,0 -0.4263771599385043,0.43191781192442125 l -10.059713004873348 -10.103098922400362" fill="#ff0901" stroke="none" /><path d="M 114.0293411484842 115.62618273729858 l 9.259832208317592 10.313800817333986 a34.860699110284266,34.860699110284266 0 0,0 -0.44996471794595544,0.397041547086636 l -9.080925137465048 -10.471665506192911" fill="#ff0100" stroke="none" /><path d="M 111.1453310114006 117.79835938074945 l 9.441290726346356 15.077119306170562 a38.789252293221736,38.789252293221736 0 0,0 -0.5689474535897947,0.34949399509434925 l -9.180364072824252 -15.23740176809329" fill="#ff4806" stroke="none" /><line stroke="#e1ed5e" stroke-width="0.3" x1="143.8653032363475" x2="146.44561519142675" y1="172.8068346515853" y2="177.08958963109032" /><path d="M 144.38136562736335 173.6633856474863 a86.0,86.0 0 0,1 -40.68145358897372,12.25698825130547" fill="none" id="id42" stroke="none" /><text fill="#e1ed5e" style="font-size:6.75px; font-family:Arial;" text-anchor="middle"><textPath startOffset="21.466115282336833" xlink:href="#id42">June</textPath></text><path d="M 109.89434966115114 118.52300852407294 l 6.528980824870654 12.222770734233148 a34.85726217667671,34.85726217667671 0 0,0 -0.5316713422956495,0.27814531794962205 l -6.317618580048509 -12.333345471127487" fill="#ff0100" stroke="none" /><path d="M 109.57404056367764 118.69057910512821 l 12.496301359521357 24.3954584825717 a48.40977822316071,48.40977822316071 0 0,0 -0.7449252696551705,0.3735209946000275 l -12.074522182183426 -24.606947318081033" fill="#ffe815" stroke="none" /><path d="M 108.92500713936063 119.00905698771935 l 7.553628452748584 16.088206035053382 a38.77322920092185,38.77322920092185 0 0,0 -0.6065831761880034,0.2784525851618781 l -7.275577280793161 -16.215845690549333" fill="#ff4806" stroke="none" /><path d="M 105.53697534728816 120.25689768951611 l 5.46387867354508 19.989475180188403 a41.72276738610432,41.72276738610432 0 0,0 -0.6944050454188676,0.18339868384436775 l -5.118983185314715 -20.080565213336357" fill="#ff7b0b" stroke="none" /><line stroke="#e1ed5e" stroke-width="0.3" x1="102.19456741930631" x2="102.32365962044197" y1="184.97166512339345" y2="189.96999836594603" /><path d="M 102.22038585953345 185.97133177190398 a86.0,86.0 0 0,1 -42.740103519485714,-10.115201625700543" fill="none" id="id43" stroke="none" /><text fill="#e1ed5e" style="font-size:6.75px; font-family:Arial;" text-anchor="middle"><textPath startOffset="22.20632615414155" xlink:href="#id43">July</textPath></text><path d="M 100.18074693466247 120.99922214144158 l 0.14741571502613338 17.12679306431478 a38.12742747936471,38.12742747936471 0 0,0 -0.6563252993771659,0.0 l 0.14741571502612158 -17.12679306431478" fill="#ff3c05" stroke="none" /><path d="M 99.45781275523022 120.99299961872073 l -0.6437094894049821 24.923849087198043 a45.93216025995687,45.93216025995687 0 0,0 -0.7902073669305313,-0.027216339468552755 l 1.0726372080101563 -24.909075949303396" fill="#ffc011" stroke="none" /><path d="M 92.40401165467489 119.57807347666478 l -14.927059988122064 38.47334460668243 a62.267606728686545,62.267606728686545 0 0,0 -0.9959227021657139,-0.3962981966938571 l 15.587103766329635 -38.21069956558251" fill="#52ff2b" stroke="none" /><line stroke="#e1ed5e" stroke-width="0.3" x1="58.666819895761336" x2="56.23545636021788" y1="174.27360380694188" y2="178.64263932499728" /><path d="M 58.180547188652646 175.14741091055294 a86.0,86.0 0 0,1 -31.652253787137756,-30.449443065178592" fill="none" id="id44" stroke="none" /><text fill="#e1ed5e" style="font-size:6.75px; font-family:Arial;" text-anchor="middle"><textPath startOffset="22.20632615414155" xlink:href="#id44">August</textPath></text><path d="M 82.44556493220864 111.52570212397912 l -14.331459486777954 9.409595490176015 a38.14442236734439,38.14442236734439 0 0,0 -0.3556424947056129,-0.5519650495671017 l 14.491306844860613 -9.161508840687466" fill="#ff3d05" stroke="none" /><line stroke="#e1ed5e" stroke-width="0.3" x1="26.63291911575756" x2="22.317208475507996" y1="142.92168965132927" y2="145.44649492493687" /><path d="M 25.769776987707644 143.4266507060508 a86.0,86.0 0 0,1 -11.730757126820373,-40.83630448921669" fill="none" id="id45" stroke="none" /><text fill="#e1ed5e" style="font-size:6.75px; font-family:Arial;" text-anchor="middle"><textPath startOffset="21.46611528233685" xlink:href="#id45">September</textPath></text><path d="M 80.20201598880116 107.00284435728193 l -16.165529498070736 5.717990627934864 a38.14700442567582,38.14700442567582 0 0,0 -0.2136398805956533,-0.6209374956223521 l 16.261560209609616 -5.438880429223215" fill="#ff3d05" stroke="none" /><path d="M 79.23777060512086 103.15116336523772 l -17.551583817501232 2.663871344242562 a38.75258586914728,38.75258586914728 0 0,0 -0.09441965864550743,-0.6603708726544142 l 17.594837527163335 -2.361354999607747" fill="#ff4706" stroke="none" /><line stroke="#e1ed5e" stroke-width="0.3" x1="15.007084014347285" x2="10.007500721073583" y1="101.09737516637583" y2="101.16192664675087" /><path d="M 14.007167355692545 101.11028546245083 a86.0,86.0 0 0,1 10.666146001902534,-42.60595125391555" fill="none" id="id46" stroke="none" /><text fill="#e1ed5e" style="font-size:6.75px; font-family:Arial;" text-anchor="middle"><textPath startOffset="22.20632615414155" xlink:href="#id46">October</textPath></text><path d="M 79.05617556472873 98.46500227214037 l -18.488144059758266 -1.3550180012145876 a39.53773299403113,39.53773299403113 0 0,0 0.05558914167884144,-0.6783283306144882 l 18.462080434259928 1.673060249036854" fill="#ff5507" stroke="none" /><path d="M 79.71946130924805 94.55025226153421 l -33.37960543101442 -8.969704009465161 a55.56376207457201,55.56376207457201 0 0,0 0.2561574879010325,-0.921534774766318 l 33.22026117254702 9.542950087650421" fill="#acff21" stroke="none" /><path d="M 80.52162464483688 92.15188598940014 l -48.164858143805326 -19.406305255163687 a72.92743247715492,72.92743247715492 0 0,0 0.4791621006151623,-1.1603290334365013 l 47.82367435630396 20.2325088590535" fill="#3cffa1" stroke="none" /><path d="M 81.43458229118936 90.18545643968196 l -45.31932270047273 -23.957902469213796 a72.26228731488621,72.26228731488621 0 0,0 0.5908023554244631,-1.0946670372741871 l 44.90021224582979 24.734450489820457" fill="#3bff98" stroke="none" /><line stroke="#e1ed5e" stroke-width="0.3" x1="26.266209847984243" x2="21.928928074336255" y1="57.711370442889674" y2="55.22380399835377" /><path d="M 25.398753493254645 57.213857153982495 a86.0,86.0 0 0,1 29.58750427330803,-30.492523968695096" fill="none" id="id47" stroke="none" /><text fill="#e1ed5e" style="font-size:6.75px; font-family:Arial;" text-anchor="middle"><textPath startOffset="21.46611528233685" xlink:href="#id47">November</textPath></text><path d="M 84.31358615837235 86.03803664274999 l -47.05924152488297 -41.885890071750055 a84.0,84.0 0 0,0 0.9706254375358201,-1.071788850921776 l 46.331272446731106 42.68973170994139" fill="#4dd2ff" stroke="none" /><path d="M 84.5562425177563 85.77008943001954 l -15.108649149818572 -13.921141048887717 a41.54432883389818,41.54432883389818 0 0,0 0.4891007464068882,-0.5217385747035239 l 14.866781081441228 14.17914904046929" fill="#ff780b" stroke="none" /><line stroke="#e1ed5e" stroke-width="0.3" x1="56.762969772571076" x2="54.21961505331055" y1="26.818313649435495" y2="22.513508569990535" /><path d="M 56.25429882871897 25.957352633546506 a86.0,86.0 0 0,1 42.265352541879196,-11.944610805530505" fill="none" id="id48" stroke="none" /><text fill="#e1ed5e" style="font-size:6.75px; font-family:Arial;" text-anchor="middle"><textPath startOffset="22.20632615414155" xlink:href="#id48">December</textPath></text><path d="M 92.57280143429618 80.3572730644239 l -7.156556853800146 -18.926960257565284 a41.234775279037066,41.234775279037066 0 0,0 0.6660745032117001,-0.24532086076683488 l 6.829700024815877 19.04734438613844" fill="#ff720a" stroke="none" /></svg>