<?xml version="1.0" encoding="utf-8" ?>
<svg baseProfile="full" height="200mm" version="1.1" viewBox="0,0,200,200" width="200mm" xmlns="http://www.w3.org/2000/svg" xmlns:ev="http://www.w3.org/2001/xml-events" xmlns:xlink="http://www.w3.org/1999/xlink"><defs /><rect fill="#1a1a1a" height="200" width="200" x="0" y="0" /><text alignment-baseline="middle" fill="#e1ed5e" style="dominant-baseline: central; font-size:9.0px; font-family:Arial;" text-anchor="middle" x="100.0" y="100.0">2023</text><line stroke="#e1ed5e" stroke-width="0.3" x1="100.0" x2="100.0" y1="15.0" y2="10.0" /><path d="M 100.0 14.0 a86.0,86.0 0 0,1 42.46469731375804,11.215312516191453" fill="none" id="id61" stroke="none" /><text fill="#e1ed5e" style="font-size:6.75px; font-family:Arial;" text-anchor="middle"><textPath startOffset="22.20632615414155" xlink:href="#id61">January</textPath></text><path d="M 100.0 79.0 l 0.0 -3.7265422003876267 a24.726542200387627,24.726542200387627 0 0,0 0.42562677739754845,0.003663504048229991 l -0.06414629812502008 3.7259900729479556" fill="#ff2b04" stroke="none" /><path d="M 102.88285421437855 79.19881850522331 l 0.4752912749262279 -3.4294554415251506 a24.462234310590123,24.462234310590123 0 0,0 0.41659303797568875,0.061394984662614116 l -0.5342532933305725 3.4207659727015676" fill="#ff2703" stroke="none" /><path d="M 108.09893153111575 80.62456947434976 l 0.9006200164628961 -2.154592922775683 a23.335248825484918,23.335248825484918 0 0,0 0.36927058098633847,0.15810239133312975 l -0.9375743552395498 2.1387710034797625" fill="#ff1702" stroke="none" /><path d="M 108.43124777332544 80.76684994638697 l 0.2999787449086877 -0.6843039569987266 a21.747167419633048,21.747167419633048 0 0,0 0.34155260417579186,0.1532446974742361 l -0.3117134675512598 0.6790389290079593" fill="#ff0000" stroke="none" /><line stroke="#e1ed5e" stroke-width="0.3" x1="143.23703022742887" x2="145.7803849466894" y1="26.81831364943548" y2="22.513508569990506" /><path d="M 143.74570117128098 25.957352633546492 a86.0,86.0 0 0,1 28.547481713284135,27.462654790039103" fill="none" id="id62" stroke="none" /><text fill="#e1ed5e" style="font-size:6.75px; font-family:Arial;" text-anchor="middle"><textPath startOffset="19.985693538727396" xlink:href="#id62">February</textPath></text><path d="M 111.60114157652 82.49532879139004 l 4.155458236326686 -6.270066585104864 a28.52207206396641,28.52207206396641 0 0,0 0.40690851886488816,0.27474644833806133 l -4.262771449598116 6.197608224468133" fill="#ff6008" stroke="none" /><path d="M 113.6212207817346 84.01681056812373 l 8.330884370059726 -9.775489668317757 a33.843824689036076,33.843824689036076 0 0,0 0.44014087619464287,0.38168583061577865 l -8.497919044901133 9.630638844282307" fill="#ffa70f" stroke="none" /><path d="M 114.42810811169701 84.74124197986012 l 1.5286288721479417 -1.6166345498752532 a23.22490752540744,23.22490752540744 0 0,0 0.2881179798057469,0.27716926829755223 l -1.556230095566107 1.5900821948153991" fill="#ff1502" stroke="none" /><path d="M 114.68862486808459 84.99185889309783 l 3.468600536992201 -3.5440517250709758 a25.95898097548288,25.95898097548288 0 0,0 0.3166553138122033,0.3152954952619663 l -3.5290916509717265 3.4838203791588906" fill="#ff3c05" stroke="none" /><path d="M 116.15771136456269 86.58626213691792 l 2.8683725418445305 -2.3812529201598522 a24.727992289232567,24.727992289232567 0 0,0 0.2690658821910751,0.3298429568582314 l -2.9089369161120144 2.33152579369352" fill="#ff2b04" stroke="none" /><path d="M 116.38621287248628 86.86637796730983 l 2.9717782479223844 -2.381893398853469 a24.80852755252294,24.80852755252294 0 0,0 0.26420599779018894,0.33551478665438705 l -3.0123383263065375 2.3303862182460438" fill="#ff2c04" stroke="none" /><path d="M 116.82858285166822 87.43820079747576 l 2.9856853132808077 -2.2286831706474493 a24.725767768536826,24.725767768536826 0 0,0 0.2516581431638973,0.34326142445644625 l -3.0236060689583315 2.1769593025195095" fill="#ff2b04" stroke="none" /><path d="M 117.04232023915458 87.72973835380427 l 3.070847240390308 -2.2109723668093926 a24.78397959569122,24.78397959569122 0 0,0 0.2462906558408963,0.3483606663316956 l -3.108450516035087 2.157785200145904" fill="#ff2c04" stroke="none" /><path d="M 117.2510076193507 88.02491185347247 l 15.261803406718116 -10.59424731025088 a39.5785015352711,39.5785015352711 0 0,0 0.38367688562255575,0.5629984864100684 l -15.441904758009404 10.329970800570406" fill="#ffef16" stroke="none" /><line stroke="#e1ed5e" stroke-width="0.3" x1="172.23445277983987" x2="176.4835382374775" y1="55.19839476539836" y2="52.563006222186495" /><path d="M 173.08426987136738 54.67131705675599 a86.0,86.0 0 0,1 12.851231095245387,41.99856678651699" fill="none" id="id63" stroke="none" /><text fill="#e1ed5e" style="font-size:6.75px; font-family:Arial;" text-anchor="middle"><textPath startOffset="22.20632615414155" xlink:href="#id63">March</textPath></text><path d="M 117.84615892207809 88.93136811851018 l 3.0823608685740687 -1.911756918064181 a24.62708740422435,24.62708740422435 0 0,0 0.22033526940371817,0.36217324964144965 l -3.1148119362640108 1.8584158952156498" fill="#ff2904" stroke="none" /><path d="M 118.89224826269711 90.83032412892265 l 3.3915815011761343 -1.6461620990622736 a24.76997012395447,24.76997012395447 0 0,0 0.18287528126207805,0.38518198134926457 l -3.4194149762799686 1.5875377020724686" fill="#ff2b04" stroke="none" /><path d="M 119.196687751892 91.48605970444005 l 3.652369150968575 -1.6198655356899587 a24.995468028737438,24.995468028737438 0 0,0 0.17105147464570597,0.39481038698049664 l -3.679711335456962 1.5567560041228592" fill="#ff2f04" stroke="none" /><path d="M 119.47837535516314 92.15188598940014 l 1.2964403858194782 -0.5223542400398573 a22.39771657573035,22.39771657573035 0 0,0 0.14100583805871933,0.35884447761746 l -1.305239773759898 0.4999607575266129" fill="#ff0901" stroke="none" /><path d="M 119.7369772167798 92.82701384747503 l 3.458843618025169 -1.2570434217632351 a24.68018441632368,24.68018441632368 0 0,0 0.1416723903063604,0.4005269252053328 l -3.4799690891413393 1.1973188701312878" fill="#ff2a04" stroke="none" /><path d="M 119.85752413597 93.16781622104841 l 3.478699540768515 -1.1968820690608215 a24.678841826197804,24.678841826197804 0 0,0 0.1347496566842987,0.4028843222260194 l -3.498786491224584 1.136824643912488" fill="#ff2a04" stroke="none" /><path d="M 120.28053869075195 94.5502522615342 l 4.630565797115069 -1.2443168234062945 a25.794837219178962,25.794837219178962 0 0,0 0.11153646849094719,0.4297955116845843 l -4.651298597476319 1.1644248861728597" fill="#ff3a05" stroke="none" /><path d="M 120.37134235888165 94.90015583598534 l 30.899684223663094 -7.7355518100769265 a52.85324546931565,52.85324546931565 0 0,0 0.21334388645530572,0.8844481434594335 l -31.028260910379217 7.202518434958087" fill="#78ff26" stroke="none" /><path d="M 120.53481517161879 95.60439243477599 l 7.3126837750551195 -1.5653263910623878 a28.478341440754814,28.478341440754814 0 0,0 0.0984817717428922,0.480232094107696 l -7.338544842713008 1.43921864079128" fill="#ff5f08" stroke="none" /><path d="M 120.6074358757038 95.95851677861258 l 7.4284991254080035 -1.4568602691043098 a28.57000931966944,28.57000931966944 0 0,0 0.09049111846601839,0.48340717325606875 l -7.452475967783881 1.3287750183856784" fill="#ff6008" stroke="none" /><path d="M 120.73433829027371 96.67025291283417 l 8.874422732623362 -1.4251519788356257 a29.988127558066886,29.988127558066886 0 0,0 0.07746091365788799,0.5103706384263127 l -8.897639539720549 1.2721822280172308" fill="#ff740a" stroke="none" /><path d="M 120.78858239683441 97.02765380044208 l 4.86084900583 -0.6950029488929341 a25.910283307147193,25.910283307147193 0 0,0 0.059327146997742705,0.4420561552789975 l -4.872092151885579 0.6112284515492722" fill="#ff3b05" stroke="none" /><path d="M 120.91429891909075 98.10471618934814 l 7.6018936000659565 -0.6888945178722441 a28.63304408237488,28.63304408237488 0 0,0 0.04025740030244189,0.4912422519455297 l -7.612625484187893 0.5579383487189458" fill="#ff6109" stroke="none" /><line stroke="#e1ed5e" stroke-width="0.3" x1="184.98032266829074" x2="189.97916517819016" y1="98.17113171792111" y2="98.06355123074" /><path d="M 185.9800911702706 98.14961562048488 a86.0,86.0 0 0,1 -9.607161424134198,41.387399972396054" fill="none" id="id64" stroke="none" /><text fill="#e1ed5e" style="font-size:6.75px; font-family:Arial;" text-anchor="middle"><textPath startOffset="21.466115282336823" xlink:href="#id64">April</textPath></text><path d="M 120.99980553446 99.90962569577887 l 62.99941660337998 -0.27112291266339017 a84.0,84.0 0 0,0 -0.006222810841987947,1.4459620871852612 l -62.994749495248485 -0.8133486527255557" fill="#4dd2ff" stroke="none" /><path d="M 120.9764740272857 100.99374915477107 l 14.971644115281688 0.7092735731344231 a35.988435425894046,35.988435425894046 0 0,0 -0.0346408383717063,0.6185354395257803 l -14.957216926022452 -0.9668807289956267" fill="#ffc212" stroke="none" /><path d="M 120.95626037817324 101.35467743843564 l 11.947860152071769 0.7723466063846811 a32.97279756338753,32.97279756338753 0 0,0 -0.04148832295661143,0.5660752041169068 l -11.93279527045082 -0.9778949469983581" fill="#ff9b0e" stroke="none" /><path d="M 120.92983693683757 101.71520430193887 l 9.07504902850011 0.743702073788897 a30.105471302697005,30.105471302697005 0 0,0 -0.046771578834257733,0.5161204750232301 l -9.060902853388777 -0.8998039373606976" fill="#ff750a" stroke="none" /><path d="M 120.89721153311464 102.0752229133903 l 14.890532379347723 1.4787223614612508 a35.96377540471283,35.96377540471283 0 0,0 -0.0664776662163823,0.6155006266363364 l -14.86287241163029 -1.7348193099823788" fill="#ffc212" stroke="none" /><path d="M 120.8583938346157 102.4346265915055 l 14.021553642205296 1.6366191770183767 a35.11674498146881,35.11674498146881 0 0,0 -0.07524764401568652,0.5997977596223851 l -13.991304488942761 -1.8777346909281567" fill="#ffb711" stroke="none" /><path d="M 120.76222939487914 103.15116336523771 l 10.153714014847555 1.5410682068939978 a31.26999510776958,31.26999510776958 0 0,0 -0.08534958384325933,0.5314719400645158 l -10.125682676643008 -1.7156193766517187" fill="#ff850c" stroke="none" /><path d="M 120.70491114924044 103.5080841355445 l 8.911230828439558 1.5098518062740254 a30.03823474770602,30.03823474770602 0 0,0 -0.09076346955202615,0.5090497384658318 l -8.883920916548345 -1.6630202954730755" fill="#ff740a" stroke="none" /><path d="M 120.64145759157962 103.86396538481128 l 10.251388244819875 1.9190025291820472 a31.429455002685337,31.429455002685337 0 0,0 -0.10412139481310322,0.5309127489494443 l -10.216836917031108 -2.0951790051994363" fill="#ff870c" stroke="none" /><path d="M 120.49622156327973 104.57218783832717 l 15.011745890640734 3.348740243724337 a36.380720916299985,36.380720916299985 0 0,0 -0.14160664470175524,0.6100377191849458 l -14.951878680008425 -3.6066466202578478" fill="#ffc712" stroke="none" /><path d="M 120.41448212921028 104.9243191809786 l 2.3033727465900182 0.5556125560857108 a23.369436920918922,23.369436920918922 0 0,0 -0.09769391204533104,0.3902386160535669 l -2.293467520249626 -0.5951790115366736" fill="#ff1702" stroke="none" /><path d="M 120.32669344350535 105.2749913415812 l 7.861154245481629 2.040052441141103 a29.121549115400313,29.121549115400313 0 0,0 -0.13009278773443425,0.4841236588647544 l -7.824873381405418 -2.1750670331814055" fill="#ff6809" stroke="none" /><path d="M 119.54520255179757 107.68017299344265 l 16.84114556175473 6.61762961930162 a39.09467340436044,39.09467340436044 0 0,0 -0.25150419873286395,0.6242127955457525 l -16.724738748764473 -6.906541782690185" fill="#ffe915" stroke="none" /><line stroke="#e1ed5e" stroke-width="0.3" x1="174.80103733775053" x2="179.2010983576182" y1="140.37084112569926" y2="142.7455964860345" /><path d="M 175.68104954172406 140.8457921977663 a86.0,86.0 0 0,1 -30.038265399797805,32.042727171017184" fill="none" id="id65" stroke="none" /><text fill="#e1ed5e" style="font-size:6.75px; font-family:Arial;" text-anchor="middle"><textPath startOffset="22.206326154141568" xlink:href="#id65">May</textPath></text><line stroke="#e1ed5e" stroke-width="0.3" x1="143.8653032363475" x2="146.44561519142675" y1="172.8068346515853" y2="177.08958963109032" /><path d="M 144.38136562736335 173.6633856474863 a86.0,86.0 0 0,1 -40.68145358897372,12.25698825130547" fill="none" id="id66" stroke="none" /><text fill="#e1ed5e" style="font-size:6.75px; font-family:Arial;" text-anchor="middle"><textPath startOffset="21.466115282336833" xlink:href="#id66">June</textPath></text><line stroke="#e1ed5e" stroke-width="0.3" x1="102.19456741930631" x2="102.32365962044197" y1="184.97166512339345" y2="189.96999836594603" /><path d="M 102.22038585953345 185.97133177190398 a86.0,86.0 0 0,1 -42.740103519485714,-10.115201625700543" fill="none" id="id67" stroke="none" /><text fill="#e1ed5e" style="font-size:6.75px; font-family:Arial;" text-anchor="middle"><textPath startOffset="22.20632615414155" xlink:href="#id67">July</textPath></text><line stroke="#e1ed5e" stroke-width="0.3" x1="58.666819895761336" x2="56.23545636021788" y1="174.27360380694188" y2="178.64263932499728" /><path d="M 58.180547188652646 175.14741091055294 a86.0,86.0 0 0,1 -31.652253787137756,-30.449443065178592" fill="none" id="id68" stroke="none" /><text fill="#e1ed5e" style="font-size:6.75px; font-family:Arial;" text-anchor="middle"><textPath startOffset="22.20632615414155" xlink:href="#id68">August</textPath></text><line stroke="#e1ed5e" stroke-width="0.3" x1="26.63291911575756" x2="22.317208475507996" y1="142.92168965132927" y2="145.44649492493687" /><path d="M 25.769776987707644 143.4266507060508 a86.0,86.0 0 0,1 -11.730757126820373,-40.83630448921669" fill="none" id="id69" stroke="none" /><text fill="#e1ed5e" style="font-size:6.75px; font-family:Arial;" text-anchor="middle"><textPath startOffset="21.46611528233685" xlink:href="#id69">September</textPath></text><line stroke="#e1ed5e" stroke-width="0.3" x1="15.007084014347285" x2="10.007500721073583" y1="101.09737516637583" y2="101.16192664675087" /><path d="M 14.007167355692545 101.11028546245083 a86.0,86.0 0 0,1 10.666146001902534,-42.60595125391555" fill="none" id="id70" stroke="none" /><text fill="#e1ed5e" style="font-size:6.75px; font-family:Arial;" text-anchor="middle"><textPath startOffset="22.20632615414155" xlink:href="#id70">October</textPath></text><line stroke="#e1ed5e" stroke-width="0.3" x1="26.266209847984243" x2="21.928928074336255" y1="57.711370442889674" y2="55.22380399835377" /><path d="M 25.398753493254645 57.213857153982495 a86.0,86.0 0 0,1 29.58750427330803,-30.492523968695096" fill="none" id="id71" stroke="none" /><text fill="#e1ed5e" style="font-size:6.75px; font-family:Arial;" text-anchor="middle"><textPath startOffset="21.46611528233685" xlink:href="#id71">November</textPath></text><line stroke="#e1ed5e" stroke-width="0.3" x1="56.762969772571076" x2="54.21961505331055" y1="26.818313649435495" y2="22.513508569990535" /><path d="M 56.25429882871897 25.957352633546506 a86.0,86.0 0 0,1 42.265352541879196,-11.944610805530505" fill="none" id="id72" stroke="none" /><text fill="#e1ed5e" style="font-size:6.75px; font-family:Arial;" text-anchor="middle"><textPath startOffset="22.20632615414155" xlink:href="#id72">December</textPath></text></svg>