<?xml version="1.0" encoding="utf-8" ?>
<svg baseProfile="full" height="200mm" version="1.1" viewBox="0,0,200,200" width="200mm" xmlns="http://www.w3.org/2000/svg" xmlns:ev="http://www.w3.org/2001/xml-events" xmlns:xlink="http://www.w3.org/1999/xlink"><defs /><rect fill="#1a1a1a" height="200" width="200" x="0" y="0" /><text alignment-baseline="middle" fill="#e1ed5e" style="dominant-baseline: central; font-size:9.0px; font-family:Arial;" text-anchor="middle" x="100.0" y="100.0">2021</text><line stroke="#e1ed5e" stroke-width="0.3" x1="100.0" x2="100.0" y1="15.0" y2="10.0" /><path d="M 100.0 14.0 a86.0,86.0 0 0,1 42.46469731375804,11.215312516191453" fill="none" id="id37" stroke="none" /><text fill="#e1ed5e" style="font-size:6.75px; font-family:Arial;" text-anchor="middle"><textPath startOffset="22.20632615414155" xlink:href="#id37">January</textPath></text><line stroke="#e1ed5e" stroke-width="0.3" x1="143.23703022742887" x2="145.7803849466894" y1="26.81831364943548" y2="22.513508569990506" /><path d="M 143.74570117128098 25.957352633546492 a86.0,86.0 0 0,1 28.547481713284135,27.462654790039103" fill="none" id="id38" stroke="none" /><text fill="#e1ed5e" style="font-size:6.75px; font-family:Arial;" text-anchor="middle"><textPath startOffset="19.985693538727396" xlink:href="#id38">February</textPath></text><line stroke="#e1ed5e" stroke-width="0.3" x1="172.23445277983987" x2="176.4835382374775" y1="55.19839476539836" y2="52.563006222186495" /><path d="M 173.08426987136738 54.67131705675599 a86.0,86.0 0 0,1 12.851231095245387,41.99856678651699" fill="none" id="id39" stroke="none" /><text fill="#e1ed5e" style="font-size:6.75px; font-family:Arial;" text-anchor="middle"><textPath startOffset="22.20632615414155" xlink:href="#id39">March</textPath></text><line stroke="#e1ed5e" stroke-width="0.3" x1="184.98032266829074" x2="189.97916517819016" y1="98.17113171792111" y2="98.06355123074" /><path d="M 185.9800911702706 98.14961562048488 a86.0,86.0 0 0,1 -9.607161424134198,41.387399972396054" fill="none" id="id40" stroke="none" /><text fill="#e1ed5e" style="font-size:6.75px; font-family:Arial;" text-anchor="middle"><textPath startOffset="21.466115282336823" xlink:href="#id40">April</textPath></text><line stroke="#e1ed5e" stroke-width="0.3" x1="174.80103733775053" x2="179.2010983576182" y1="140.37084112569926" y2="142.7455964860345" /><path d="M 175.68104954172406 140.8457921977663 a86.0,86.0 0 0,1 -30.038265399797805,32.042727171017184" fill="none" id="id41" stroke="none" /><text fill="#e1ed5e" style="font-size:6.75px; font-family:Arial;" text-anchor="middle"><textPath startOffset="22.206326154141568" xlink:href="#id41">May</textPath></text><path d="M 117.35343817320211 111.8261652097733 l 7.597526282702309 5.17762532750321 a30.194031196833905,30.194031196833905 0 0,0 -0.2963890571444524,0.42697054255702627 l -7.50727631839572 -5.307637132247256" fill="#ff0b01" stroke="none" /><path d="M 117.14729908036423 112.12312394758627 l 6.959318922588743 4.920231780755395 a29.52295727096277,29.52295727096277 0 0,0 -0.29694500783137917,0.41243064433346 l -6.873594122381761 -5.039296030539986" fill="#ff0000" stroke="none" /><path d="M 115.07121518719521 114.62390073753431 l 6.323351663642615 6.135674257786337 a29.81086118717993,29.81086118717993 0 0,0 -0.36051179398344807,0.365196543953566 l -6.2167992446036315 -6.243611295720568" fill="#ff0500" stroke="none" /><path d="M 114.0293411484842 115.62618273729858 l 5.72248113340187 6.373822901223162 a29.565769591711955,29.565769591711955 0 0,0 -0.3816203780969238,0.3367356134300031 l -5.611918402398358 -6.4713816564254545" fill="#ff0100" stroke="none" /><path d="M 111.1453310114006 117.79835938074945 l 11.403206893216513 18.210170175376582 a42.48588898011147,42.48588898011147 0 0,0 -0.6231684531067163,0.38280096152791454 l -11.088059240177488 -18.403759603732876" fill="#ffca12" stroke="none" /><line stroke="#e1ed5e" stroke-width="0.3" x1="143.8653032363475" x2="146.44561519142675" y1="172.8068346515853" y2="177.08958963109032" /><path d="M 144.38136562736335 173.6633856474863 a86.0,86.0 0 0,1 -40.68145358897372,12.25698825130547" fill="none" id="id42" stroke="none" /><text fill="#e1ed5e" style="font-size:6.75px; font-family:Arial;" text-anchor="middle"><textPath startOffset="21.466115282336833" xlink:href="#id42">June</textPath></text><path d="M 109.89434966115114 118.52300852407294 l 4.03484304576326 7.5535466897249375 a29.56364560206684,29.56364560206684 0 0,0 -0.45092879242021744,0.23590463198337183 l -3.9042233508165474 -7.621880740653026" fill="#ff0100" stroke="none" /><path d="M 109.57404056367764 118.69057910512821 l 13.795821234666326 26.932399794187937 a51.26018575972138,51.26018575972138 0 0,0 -0.7887870818909415,0.39551421781132867 l -13.330180245092624 -27.165881852908566" fill="#bcff1f" stroke="none" /><path d="M 108.92500713936063 119.00905698771935 l 9.123185646219138 19.43115037899527 a42.466301996070655,42.466301996070655 0 0,0 -0.66435901462453,0.30497463886216003 l -8.78735863582719 -19.585312088191504" fill="#ffc912" stroke="none" /><path d="M 105.53697534728816 120.25689768951611 l 3.3766208632239794 12.353290212157782 a33.806457258732905,33.806457258732905 0 0,0 -0.5626514241243703,0.14860135497046162 l -3.163478996288112 -12.409582916431829" fill="#ff4606" stroke="none" /><line stroke="#e1ed5e" stroke-width="0.3" x1="102.19456741930631" x2="102.32365962044197" y1="184.97166512339345" y2="189.96999836594603" /><path d="M 102.22038585953345 185.97133177190398 a86.0,86.0 0 0,1 -42.740103519485714,-10.115201625700543" fill="none" id="id43" stroke="none" /><text fill="#e1ed5e" style="font-size:6.75px; font-family:Arial;" text-anchor="middle"><textPath startOffset="22.20632615414155" xlink:href="#id43">July</textPath></text><path d="M 100.18074693466247 120.99922214144158 l 0.17710063689085248 20.575594393381145 a41.576356559812155,41.576356559812155 0 0,0 -0.7156951431066018,0.0 l 0.17710063689083833 -20.575594393381145" fill="#ffbc11" stroke="none" /><path d="M 99.45781275523022 120.99299961872073 l -0.39780584849075057 15.402682571843254 a36.40781879118707,36.40781879118707 0 0,0 -0.6263525699606375,-0.021572848956428154 l 0.6628787701260311 -15.393552924460732" fill="#ff6f0a" stroke="none" /><path d="M 92.40401165467489 119.57807347666478 l -17.38183727711103 44.80034353661785 a69.05412623414293,69.05412623414293 0 0,0 -1.1044678863996964,-0.4394905656178583 l 18.150426239552583 -44.494506126593926" fill="#38ff80" stroke="none" /><line stroke="#e1ed5e" stroke-width="0.3" x1="58.666819895761336" x2="56.23545636021788" y1="174.27360380694188" y2="178.64263932499728" /><path d="M 58.180547188652646 175.14741091055294 a86.0,86.0 0 0,1 -31.652253787137756,-30.449443065178592" fill="none" id="id44" stroke="none" /><text fill="#e1ed5e" style="font-size:6.75px; font-family:Arial;" text-anchor="middle"><textPath startOffset="22.20632615414155" xlink:href="#id44">August</textPath></text><path d="M 82.44556493220864 111.52570212397912 l -8.856694665971782 5.815033302343051 a31.595076814899066,31.595076814899066 0 0,0 -0.2945791610279,-0.45719339966049866 l 8.955478690376728 -5.661718302761104" fill="#ff2203" stroke="none" /><line stroke="#e1ed5e" stroke-width="0.3" x1="26.63291911575756" x2="22.317208475507996" y1="142.92168965132927" y2="145.44649492493687" /><path d="M 25.769776987707644 143.4266507060508 a86.0,86.0 0 0,1 -11.730757126820373,-40.83630448921669" fill="none" id="id45" stroke="none" /><text fill="#e1ed5e" style="font-size:6.75px; font-family:Arial;" text-anchor="middle"><textPath startOffset="21.46611528233685" xlink:href="#id45">September</textPath></text><path d="M 80.20201598880116 107.00284435728193 l -9.990131082620193 3.5336594393075957 a31.596672500409824,31.596672500409824 0 0,0 -0.17695516179676873,-0.5143145310565637 l 10.04947707536019 -3.3611722051617354" fill="#ff2203" stroke="none" /><path d="M 79.23777060512086 103.15116336523772 l -10.846698406344117 1.646245111822344 a31.970915608388708,31.970915608388708 0 0,0 -0.07789629699863976,-0.544806519780685 l 10.873428754359356 -1.4592931200612584" fill="#ff2803" stroke="none" /><line stroke="#e1ed5e" stroke-width="0.3" x1="15.007084014347285" x2="10.007500721073583" y1="101.09737516637583" y2="101.16192664675087" /><path d="M 14.007167355692545 101.11028546245083 a86.0,86.0 0 0,1 10.666146001902534,-42.60595125391555" fill="none" id="id46" stroke="none" /><text fill="#e1ed5e" style="font-size:6.75px; font-family:Arial;" text-anchor="middle"><textPath startOffset="22.20632615414155" xlink:href="#id46">October</textPath></text><path d="M 79.05617556472873 98.46500227214037 l -21.595615483848277 -1.5827682666978038 a42.65353928373588,42.65353928373588 0 0,0 0.059969893537031464,-0.7317845993219687 l 21.565171106491746 1.954266783227551" fill="#ffcc13" stroke="none" /><path d="M 79.71946130924805 94.55025226153421 l -20.628253085169426 -5.543184888410564 a42.36004972028167,42.36004972028167 0 0,0 0.19528634344714263,-0.7025488811516996 l 20.52977997115592 5.897445072981205" fill="#ffc812" stroke="none" /><path d="M 80.52162464483688 92.15188598940014 l -29.765387300790074 -11.992897192236349 a53.09061956755565,53.09061956755565 0 0,0 0.3488263871475164,-0.8447107651385414 l 29.554539226756358 12.5034825278282" fill="#a5ff21" stroke="none" /><path d="M 81.43458229118936 90.18545643968196 l -55.69625312643191 -29.44363068095413 a84.0,84.0 0 0,0 0.6867676031261127,-1.2724760666701092 l 55.18117742408733 30.39798773095671" fill="#4dd2ff" stroke="none" /><line stroke="#e1ed5e" stroke-width="0.3" x1="26.266209847984243" x2="21.928928074336255" y1="57.711370442889674" y2="55.22380399835377" /><path d="M 25.398753493254645 57.213857153982495 a86.0,86.0 0 0,1 29.58750427330803,-30.492523968695096" fill="none" id="id47" stroke="none" /><text fill="#e1ed5e" style="font-size:6.75px; font-family:Arial;" text-anchor="middle"><textPath startOffset="21.46611528233685" xlink:href="#id47">November</textPath></text><path d="M 84.31358615837235 86.03803664274999 l -29.082127593678358 -25.88504956666851 a59.93335249428019,59.93335249428019 0 0,0 0.6925337677113006,-0.76471308335398 l 28.632250185351012 26.381815437292044" fill="#52ff2b" stroke="none" /><path d="M 84.5562425177563 85.77008943001954 l -9.33698988987767 -8.603122088554587 a33.69618406743749,33.69618406743749 0 0,0 0.3967046583985251,-0.4231768701471355 l 9.187517909508689 8.762568375579772" fill="#ff4406" stroke="none" /><line stroke="#e1ed5e" stroke-width="0.3" x1="56.762969772571076" x2="54.21961505331055" y1="26.818313649435495" y2="22.513508569990535" /><path d="M 56.25429882871897 25.957352633546506 a86.0,86.0 0 0,1 42.265352541879196,-11.944610805530505" fill="none" id="id48" stroke="none" /><text fill="#e1ed5e" style="font-size:6.75px; font-family:Arial;" text-anchor="middle"><textPath startOffset="22.20632615414155" xlink:href="#id48">December</textPath></text><path d="M 92.57280143429618 80.3572730644239 l -4.4226785814977445 -11.696666910365417 a33.504883152084076,33.504883152084076 0 0,0 0.5412118351481802,-0.1993328863596376 l 4.220684420576995 11.771063064531377" fill="#ff4106" stroke="none" /></svg>