<?xml version="1.0" encoding="utf-8" ?>
<svg baseProfile="full" height="200mm" version="1.1" viewBox="0,0,200,200" width="200mm" xmlns="http://www.w3.org/2000/svg" xmlns:ev="http://www.w3.org/2001/xml-events" xmlns:xlink="http://www.w3.org/1999/xlink"><defs /><rect fill="#1a1a1a" height="200" width="200" x="0" y="0" /><text alignment-baseline="middle" fill="#e1ed5e" style="dominant-baseline: central; font-size:9.0px; font-family:Arial;" text-anchor="middle" x="100.0" y="100.0">2023</text><line stroke="#e1ed5e" stroke-width="0.3" x1="100.0" x2="100.0" y1="15.0" y2="10.0" /><path d="M 100.0 14.0 a86.0,86.0 0 0,1 42.46469731375804,11.215312516191453" fill="none" id="id61" stroke="none" /><text fill="#e1ed5e" style="font-size:6.75px; font-family:Arial;" text-anchor="middle"><textPath startOffset="22.20632615414155" xlink:href="#id61">January</textPath></text><line stroke="#e1ed5e" stroke-width="0.3" x1="143.23703022742887" x2="145.7803849466894" y1="26.818313649435467" y2="22.513508569990506" /><path d="M 143.74570117128098 25.957352633546478 a86.0,86.0 0 0,1 28.547481713284135,27.462654790039114" fill="none" id="id62" stroke="none" /><text fill="#e1ed5e" style="font-size:6.75px; font-family:Arial;" text-anchor="middle"><textPath startOffset="19.985693538727396" xlink:href="#id62">February</textPath></text><line stroke="#e1ed5e" stroke-width="0.3" x1="172.23445277983987" x2="176.4835382374775" y1="55.19839476539836" y2="52.563006222186495" /><path d="M 173.08426987136738 54.67131705675599 a86.0,86.0 0 0,1 12.851231095245387,41.99856678651699" fill="none" id="id63" stroke="none" /><text fill="#e1ed5e" style="font-size:6.75px; font-family:Arial;" text-anchor="middle"><textPath startOffset="22.20632615414155" xlink:href="#id63">March</textPath></text><path d="M 120.37134235888165 94.90015583598534 l 31.046758163715978 -7.772370894536048 a53.00485809683423,53.00485809683423 0 0,0 0.2139558758781557,0.8869852347154787 l -31.175946839854955 7.236800428161163" fill="#82ff25" stroke="none" /><path d="M 120.53481517161879 95.60439243477599 l 7.322223475246563 -1.5673684244569437 a28.488097248262505,28.488097248262505 0 0,0 0.09851550858146964,0.4803966069139948 l -7.34811827974303 1.4410961613795379" fill="#ff4206" stroke="none" /><path d="M 120.6074358757038 95.95851677861258 l 7.337067340103874 -1.438928876356714 a28.476835792260797,28.476835792260797 0 0,0 0.09019600562190645,0.48183066864233304 l -7.36074906963564 1.3124201302518177" fill="#ff4206" stroke="none" /><path d="M 120.73433829027371 96.67025291283417 l 7.408634481116184 -1.1897596507791564 a28.50355868247899,28.50355868247899 0 0,0 0.07362619402531234,0.485104627290588 l -7.428016568580797 1.0620559110964856" fill="#ff4206" stroke="none" /><path d="M 120.78858239683441 97.02765380044208 l 9.755986345924715 -1.3949084350582708 a30.85520365715829,30.85520365715829 0 0,0 0.07064960198673598,0.5264215962961483 l -9.778551946969287 1.2267684966974586" fill="#ff6409" stroke="none" /><path d="M 120.91429891909075 98.10471618934814 l 7.597314679559263 -0.6884795695184804 a28.62844639870341,28.62844639870341 0 0,0 0.04025093606512595,0.491163371876962 l -7.608040099443884 0.5576022804337494" fill="#ff4406" stroke="none" /><line stroke="#e1ed5e" stroke-width="0.3" x1="184.98032266829074" x2="189.97916517819016" y1="98.17113171792111" y2="98.06355123074" /><path d="M 185.9800911702706 98.14961562048488 a86.0,86.0 0 0,1 -9.607161424134198,41.387399972396054" fill="none" id="id64" stroke="none" /><text fill="#e1ed5e" style="font-size:6.75px; font-family:Arial;" text-anchor="middle"><textPath startOffset="21.466115282336823" xlink:href="#id64">April</textPath></text><path d="M 120.99980553446 99.90962569577887 l 62.99941660337998 -0.27112291266339017 a84.0,84.0 0 0,0 -0.006222810841987947,1.4459620871852612 l -62.994749495248485 -0.8133486527255557" fill="#4dd2ff" stroke="none" /><path d="M 120.9764740272857 100.99374915477107 l 14.948209589410016 0.7081633750979398 a35.96497461724408,35.96497461724408 0 0,0 -0.03461825605961367,0.6181322171734273 l -14.933804982462872 -0.9653673086067903" fill="#ffab0f" stroke="none" /><path d="M 120.95626037817324 101.35467743843564 l 10.898530924352087 0.7045147220393473 a31.92127818996609,31.92127818996609 0 0,0 -0.04016523912437744,0.5480227764210732 l -10.884789126563373 -0.8920106349571905" fill="#ff730a" stroke="none" /><path d="M 120.92983693683757 101.71520430193887 l 8.958578025532118 0.734157251918344 a29.98860985414826,29.98860985414826 0 0,0 -0.04659002398004114,0.5141170323356715 l -8.944613405275001 -0.8882556728025864" fill="#ff5808" stroke="none" /><path d="M 120.89721153311464 102.0752229133903 l 14.888526193428643 1.4785231347375705 a35.96175935083722,35.96175935083722 0 0,0 -0.0664739396177394,0.6154661229611859 l -14.860869952309852 -1.7345855795835474" fill="#ffab0f" stroke="none" /><path d="M 120.8583938346157 102.4346265915055 l 14.13391921253345 1.6497346741971002 a35.229873393733,35.229873393733 0 0,0 -0.07549005391155265,0.6017300050016618 l -14.103427649375048 -1.8927824334861574" fill="#ffa10e" stroke="none" /><path d="M 120.76222939487914 103.15116336523771 l 10.356996549558511 1.571921178604821 a31.475605649284116,31.475605649284116 0 0,0 -0.08591078553489577,0.5349665435340665 l -10.328404009662325 -1.7499669518320926" fill="#ff6d0a" stroke="none" /><path d="M 120.70491114924044 103.5080841355445 l 8.895354710800262 1.507161876526295 a30.022132361754103,30.022132361754103 0 0,0 -0.0907148146150987,0.5087768557406536 l -8.868093453845974 -1.6600574830001669" fill="#ff5808" stroke="none" /><path d="M 120.64145759157962 103.86396538481128 l 10.301662133913592 1.9284135199687253 a31.480602149939063,31.480602149939063 0 0,0 -0.10429083816846252,0.5317767369679154 l -10.266941362769465 -2.1054539840045856" fill="#ff6d0a" stroke="none" /><path d="M 120.49622156327973 104.57218783832717 l 15.077729759211685 3.3634595733566037 a36.44832660819358,36.44832660819358 0 0,0 -0.14186978998724364,0.6111713421876788 l -15.017599403293888 -3.6224995728928464" fill="#ffb110" stroke="none" /><path d="M 120.41448212921028 104.9243191809786 l 2.9286594270023456 0.706442304030141 a24.01265775824157,24.01265775824157 0 0,0 -0.10038284118469226,0.4009795513282591 l -2.916065271522592 -0.7567496947557966" fill="#ff0000" stroke="none" /><path d="M 120.32669344350535 105.2749913415812 l 7.905161167304246 2.0514727015110017 a29.167013733678907,29.167013733678907 0 0,0 -0.13029588884391527,0.48487947364860057 l -7.868677202118554 -2.1872431083351502" fill="#ff4c07" stroke="none" /><path d="M 119.54520255179757 107.68017299344265 l 16.7273805410591 6.572926320001985 a38.972440573655476,38.972440573655476 0 0,0 -0.2507178494052373,0.6222611410026221 l -16.61176007739647 -6.85988682884742" fill="#ffd213" stroke="none" /><line stroke="#e1ed5e" stroke-width="0.3" x1="174.80103733775053" x2="179.2010983576182" y1="140.37084112569926" y2="142.7455964860345" /><path d="M 175.68104954172406 140.8457921977663 a86.0,86.0 0 0,1 -30.038265399797805,32.042727171017184" fill="none" id="id65" stroke="none" /><text fill="#e1ed5e" style="font-size:6.75px; font-family:Arial;" text-anchor="middle"><textPath startOffset="22.206326154141568" xlink:href="#id65">May</textPath></text><line stroke="#e1ed5e" stroke-width="0.3" x1="143.8653032363475" x2="146.44561519142675" y1="172.8068346515853" y2="177.08958963109032" /><path d="M 144.38136562736335 173.6633856474863 a86.0,86.0 0 0,1 -40.68145358897372,12.25698825130547" fill="none" id="id66" stroke="none" /><text fill="#e1ed5e" style="font-size:6.75px; font-family:Arial;" text-anchor="middle"><textPath startOffset="21.466115282336833" xlink:href="#id66">June</textPath></text><line stroke="#e1ed5e" stroke-width="0.3" x1="102.19456741930631" x2="102.32365962044197" y1="184.97166512339345" y2="189.96999836594603" /><path d="M 102.22038585953345 185.97133177190398 a86.0,86.0 0 0,1 -42.740103519485714,-10.115201625700543" fill="none" id="id67" stroke="none" /><text fill="#e1ed5e" style="font-size:6.75px; font-family:Arial;" text-anchor="middle"><textPath startOffset="22.20632615414155" xlink:href="#id67">July</textPath></text><line stroke="#e1ed5e" stroke-width="0.3" x1="58.666819895761336" x2="56.23545636021788" y1="174.27360380694188" y2="178.64263932499728" /><path d="M 58.180547188652646 175.14741091055294 a86.0,86.0 0 0,1 -31.652253787137756,-30.449443065178592" fill="none" id="id68" stroke="none" /><text fill="#e1ed5e" style="font-size:6.75px; font-family:Arial;" text-anchor="middle"><textPath startOffset="22.20632615414155" xlink:href="#id68">August</textPath></text><line stroke="#e1ed5e" stroke-width="0.3" x1="26.63291911575756" x2="22.317208475507996" y1="142.92168965132927" y2="145.44649492493687" /><path d="M 25.769776987707644 143.4266507060508 a86.0,86.0 0 0,1 -11.730757126820373,-40.83630448921669" fill="none" id="id69" stroke="none" /><text fill="#e1ed5e" style="font-size:6.75px; font-family:Arial;" text-anchor="middle"><textPath startOffset="21.46611528233685" xlink:href="#id69">September</textPath></text><line stroke="#e1ed5e" stroke-width="0.3" x1="15.007084014347285" x2="10.007500721073583" y1="101.09737516637583" y2="101.16192664675087" /><path d="M 14.007167355692545 101.11028546245083 a86.0,86.0 0 0,1 10.666146001902526,-42.60595125391555" fill="none" id="id70" stroke="none" /><text fill="#e1ed5e" style="font-size:6.75px; font-family:Arial;" text-anchor="middle"><textPath startOffset="22.20632615414155" xlink:href="#id70">October</textPath></text><line stroke="#e1ed5e" stroke-width="0.3" x1="26.266209847984243" x2="21.928928074336255" y1="57.71137044288968" y2="55.22380399835378" /><path d="M 25.398753493254645 57.2138571539825 a86.0,86.0 0 0,1 29.58750427330803,-30.4925239686951" fill="none" id="id71" stroke="none" /><text fill="#e1ed5e" style="font-size:6.75px; font-family:Arial;" text-anchor="middle"><textPath startOffset="21.46611528233685" xlink:href="#id71">November</textPath></text><line stroke="#e1ed5e" stroke-width="0.3" x1="56.76296977257108" x2="54.21961505331056" y1="26.818313649435495" y2="22.513508569990535" /><path d="M 56.25429882871898 25.957352633546506 a86.0,86.0 0 0,1 42.26535254187918,-11.944610805530505" fill="none" id="id72" stroke="none" /><text fill="#e1ed5e" style="font-size:6.75px; font-family:Arial;" text-anchor="middle"><textPath startOffset="22.20632615414155" xlink:href="#id72">December</textPath></text></svg>