<?xml version="1.0" encoding="utf-8" ?>
<svg baseProfile="full" height="200mm" version="1.1" viewBox="0,0,200,200" width="200mm" xmlns="http://www.w3.org/2000/svg" xmlns:ev="http://www.w3.org/2001/xml-events" xmlns:xlink="http://www.w3.org/1999/xlink"><defs /><rect fill="#1a1a1a" height="200" width="200" x="0" y="0" /><text alignment-baseline="middle" fill="#e1ed5e" style="dominant-baseline: central; font-size:9.0px; font-family:Arial;" text-anchor="middle" x="100.0" y="100.0">2021</text><line stroke="#e1ed5e" stroke-width="0.3" x1="100.0" x2="100.0" y1="15.0" y2="10.0" /><path d="M 100.0 14.0 a86.0,86.0 0 0,1 42.46469731375804,11.215312516191453" fill="none" id="id37" stroke="none" /><text fill="#e1ed5e" style="font-size:6.75px; font-family:Arial;" text-anchor="middle"><textPath startOffset="22.20632615414155" xlink:href="#id37">January</textPath></text><line stroke="#e1ed5e" stroke-width="0.3" x1="143.23703022742887" x2="145.7803849466894" y1="26.81831364943548" y2="22.513508569990506" /><path d="M 143.74570117128098 25.957352633546492 a86.0,86.0 0 0,1 28.547481713284135,27.462654790039103" fill="none" id="id38" stroke="none" /><text fill="#e1ed5e" style="font-size:6.75px; font-family:Arial;" text-anchor="middle"><textPath startOffset="19.985693538727396" xlink:href="#id38">February</textPath></text><line stroke="#e1ed5e" stroke-width="0.3" x1="172.23445277983987" x2="176.4835382374775" y1="55.19839476539836" y2="52.563006222186495" /><path d="M 173.08426987136738 54.67131705675599 a86.0,86.0 0 0,1 12.851231095245387,41.99856678651699" fill="none" id="id39" stroke="none" /><text fill="#e1ed5e" style="font-size:6.75px; font-family:Arial;" text-anchor="middle"><textPath startOffset="22.20632615414155" xlink:href="#id39">March</textPath></text><line stroke="#e1ed5e" stroke-width="0.3" x1="184.98032266829074" x2="189.97916517819016" y1="98.17113171792111" y2="98.06355123074" /><path d="M 185.9800911702706 98.14961562048488 a86.0,86.0 0 0,1 -9.607161424134198,41.387399972396054" fill="none" id="id40" stroke="none" /><text fill="#e1ed5e" style="font-size:6.75px; font-family:Arial;" text-anchor="middle"><textPath startOffset="21.466115282336823" xlink:href="#id40">April</textPath></text><line stroke="#e1ed5e" stroke-width="0.3" x1="174.80103733775053" x2="179.2010983576182" y1="140.37084112569926" y2="142.7455964860345" /><path d="M 175.68104954172406 140.8457921977663 a86.0,86.0 0 0,1 -30.038265399797805,32.042727171017184" fill="none" id="id41" stroke="none" /><text fill="#e1ed5e" style="font-size:6.75px; font-family:Arial;" text-anchor="middle"><textPath startOffset="22.206326154141568" xlink:href="#id41">May</textPath></text><line stroke="#e1ed5e" stroke-width="0.3" x1="143.8653032363475" x2="146.44561519142675" y1="172.8068346515853" y2="177.08958963109032" /><path d="M 144.38136562736335 173.6633856474863 a86.0,86.0 0 0,1 -40.68145358897372,12.25698825130547" fill="none" id="id42" stroke="none" /><text fill="#e1ed5e" style="font-size:6.75px; font-family:Arial;" text-anchor="middle"><textPath startOffset="21.466115282336833" xlink:href="#id42">June</textPath></text><line stroke="#e1ed5e" stroke-width="0.3" x1="102.19456741930631" x2="102.32365962044197" y1="184.97166512339345" y2="189.96999836594603" /><path d="M 102.22038585953345 185.97133177190398 a86.0,86.0 0 0,1 -42.740103519485714,-10.115201625700543" fill="none" id="id43" stroke="none" /><text fill="#e1ed5e" style="font-size:6.75px; font-family:Arial;" text-anchor="middle"><textPath startOffset="22.20632615414155" xlink:href="#id43">July</textPath></text><line stroke="#e1ed5e" stroke-width="0.3" x1="58.666819895761336" x2="56.23545636021788" y1="174.27360380694188" y2="178.64263932499728" /><path d="M 58.180547188652646 175.14741091055294 a86.0,86.0 0 0,1 -31.652253787137756,-30.449443065178592" fill="none" id="id44" stroke="none" /><text fill="#e1ed5e" style="font-size:6.75px; font-family:Arial;" text-anchor="middle"><textPath startOffset="22.20632615414155" xlink:href="#id44">August</textPath></text><line stroke="#e1ed5e" stroke-width="0.3" x1="26.63291911575756" x2="22.317208475507996" y1="142.92168965132927" y2="145.44649492493687" /><path d="M 25.769776987707644 143.4266507060508 a86.0,86.0 0 0,1 -11.730757126820373,-40.83630448921669" fill="none" id="id45" stroke="none" /><text fill="#e1ed5e" style="font-size:6.75px; font-family:Arial;" text-anchor="middle"><textPath startOffset="21.46611528233685" xlink:href="#id45">September</textPath></text><line stroke="#e1ed5e" stroke-width="0.3" x1="15.007084014347285" x2="10.007500721073583" y1="101.09737516637583" y2="101.16192664675087" /><path d="M 14.007167355692545 101.11028546245083 a86.0,86.0 0 0,1 10.666146001902534,-42.60595125391555" fill="none" id="id46" stroke="none" /><text fill="#e1ed5e" style="font-size:6.75px; font-family:Arial;" text-anchor="middle"><textPath startOffset="22.20632615414155" xlink:href="#id46">October</textPath></text><path d="M 79.71946130924805 94.55025226153421 l -50.93594962538517 -13.68741139031637 a73.74292554274496,73.74292554274496 0 0,0 0.339966227127502,-1.2230394009217433 l 50.69279662769131 14.562162094657056" fill="#3fffc2" stroke="none" /><path d="M 80.52162464483688 92.15188598940014 l -47.71661807300537 -19.22570296592682 a72.44417649121337,72.44417649121337 0 0,0 0.47598691748457367,-1.1526400756325141 l 47.3786094686346 20.04421761201265" fill="#3effb3" stroke="none" /><path d="M 81.43458229118936 90.18545643968196 l -46.03349471572951 -24.335447023461636 a73.07011251740104,73.07011251740104 0 0,0 0.5974069765920343,-1.106904397229581 l 45.60777963991901 25.124232404023687" fill="#3fffba" stroke="none" /><path d="M 81.6062741919709 89.86733742301443 l -15.187989662483519 -8.366699388631384 a38.34003139118932,38.34003139118932 0 0,0 0.3234115996932156,-0.5753131486181788 l 15.041720421497873 8.626896047184347" fill="#ffb711" stroke="none" /><line stroke="#e1ed5e" stroke-width="0.3" x1="26.266209847984243" x2="21.928928074336255" y1="57.711370442889674" y2="55.22380399835377" /><path d="M 25.398753493254645 57.213857153982495 a86.0,86.0 0 0,1 29.58750427330803,-30.492523968695096" fill="none" id="id47" stroke="none" /><text fill="#e1ed5e" style="font-size:6.75px; font-family:Arial;" text-anchor="middle"><textPath startOffset="21.46611528233685" xlink:href="#id47">November</textPath></text><path d="M 82.34701348167596 88.62581576622439 l -4.077918418049276 -2.6274871579974883 a25.851093422075813,25.851093422075813 0 0,0 0.24423542450555127,-0.3719873075512889 l 4.032086358185804 2.697292529526444" fill="#ff0000" stroke="none" /><path d="M 82.7489923806493 88.02491185347247 l -37.24157459657105 -25.851889254814665 a66.33492093822562,66.33492093822562 0 0,0 0.6592028983864366,-0.9323957506452538 l 36.791059078380734 26.489111505791705" fill="#36ff6b" stroke="none" /><path d="M 84.31358615837235 86.03803664274999 l -47.05924152488297 -41.885890071750055 a84.0,84.0 0 0,0 0.9706254375358201,-1.071788850921776 l 46.331272446731106 42.68973170994139" fill="#4dd2ff" stroke="none" /><path d="M 84.5562425177563 85.77008943001954 l -15.26660810494148 -14.066684761789894 a41.75911711074045,41.75911711074045 0 0,0 0.4916294454970342,-0.5244360145844463 l 15.022211337473989 14.327390193252391" fill="#ffe515" stroke="none" /><path d="M 84.80347519578584 85.50635884689758 l -7.432656869459783 -7.0888747834121935 a31.27115056038149,31.27115056038149 0 0,0 0.37486029100801316,-0.3863264810336082 l 7.309532314748652 7.215765459995925" fill="#ff5207" stroke="none" /><path d="M 85.57189188830299 84.74124197986013 l -4.356620975369074 -4.60743880860784 a27.341028205117166,27.341028205117166 0 0,0 0.34474708179321434,-0.320404840632526 l 4.276666009781003 4.681748235315014" fill="#ff1702" stroke="none" /><path d="M 88.09926311788651 82.69761687909137 l -19.99314002499573 -29.06786125339612 a56.279827180781,56.279827180781 0 0,0 0.8029129534749155,-0.5421304103124657 l 19.489822377114272 29.40770357600725" fill="#68ff28" stroke="none" /><line stroke="#e1ed5e" stroke-width="0.3" x1="56.762969772571076" x2="54.21961505331055" y1="26.818313649435495" y2="22.513508569990535" /><path d="M 56.25429882871897 25.957352633546506 a86.0,86.0 0 0,1 42.265352541879196,-11.944610805530505" fill="none" id="id48" stroke="none" /><text fill="#e1ed5e" style="font-size:6.75px; font-family:Arial;" text-anchor="middle"><textPath startOffset="22.20632615414155" xlink:href="#id48">December</textPath></text><path d="M 89.94658935756843 81.56283822128135 l -4.759543297152602 -8.728626819643587 a30.941940381739954,30.941940381739954 0 0,0 0.46980909336874493,-0.25095574715832825 l 4.608589157255552 8.809261293303665" fill="#ff4d07" stroke="none" /><path d="M 90.26544431104013 81.39251694778311 l -2.840818373828556 -5.43018925921716 a27.128393298736572,27.128393298736572 0 0,0 0.4156321920207502,-0.2129029519949491 l 2.7469256942190423 5.478284736524614" fill="#ff1402" stroke="none" /><path d="M 92.57280143429618 80.3572730644239 l -12.638045058148812 -33.42386310001664 a56.7333850540423,56.7333850540423 0 0,0 0.9164269966229285,-0.3375277969017941 l 12.060835735753315 33.63645416472476" fill="#63ff29" stroke="none" /><path d="M 95.33964822691252 79.52364482259891 l -8.411393912522309 -36.957443917528714 a58.90256203040762,58.90256203040762 0 0,0 0.9905651593827146,-0.21649917696753804 l 7.773986028986074 37.09675659259212" fill="#4cff2c" stroke="none" /><path d="M 98.91598698831166 79.02799685794201 l -0.41920200197113705 -8.110147763635252 a29.120974514579792,29.120974514579792 0 0,0 0.5008241388427307,-0.02156654093013178 l 0.27953703073908226 8.116162031089576" fill="#ff3204" stroke="none" /></svg>