<?xml version="1.0" encoding="utf-8" ?>
<svg baseProfile="full" height="200mm" version="1.1" viewBox="0,0,200,200" width="200mm" xmlns="http://www.w3.org/2000/svg" xmlns:ev="http://www.w3.org/2001/xml-events" xmlns:xlink="http://www.w3.org/1999/xlink"><defs /><rect fill="#1a1a1a" height="200" width="200" x="0" y="0" /><text alignment-baseline="middle" fill="#e1ed5e" style="dominant-baseline: central; font-size:9.0px; font-family:Arial;" text-anchor="middle" x="100.0" y="100.0">2022</text><line stroke="#e1ed5e" stroke-width="0.3" x1="100.0" x2="100.0" y1="15.0" y2="10.0" /><path d="M 100.0 14.0 a86.0,86.0 0 0,1 42.46469731375804,11.215312516191453" fill="none" id="id49" stroke="none" /><text fill="#e1ed5e" style="font-size:6.75px; font-family:Arial;" text-anchor="middle"><textPath startOffset="22.20632615414155" xlink:href="#id49">January</textPath></text><path d="M 110.36928655335952 81.73862282372117 l 3.901612486955968 -6.871139769678606 a28.901591088687752,28.901591088687752 0 0,0 0.4305005775948799,0.24937372143252443 l -4.019309797016176 6.802961890856031" fill="#ff4a06" stroke="none" /><line stroke="#e1ed5e" stroke-width="0.3" x1="143.23703022742887" x2="145.7803849466894" y1="26.81831364943548" y2="22.513508569990506" /><path d="M 143.74570117128098 25.957352633546492 a86.0,86.0 0 0,1 28.547481713284135,27.462654790039103" fill="none" id="id50" stroke="none" /><text fill="#e1ed5e" style="font-size:6.75px; font-family:Arial;" text-anchor="middle"><textPath startOffset="19.985693538727396" xlink:href="#id50">February</textPath></text><path d="M 110.99172775467656 82.1063720568725 l 25.249007557095016 -41.10330579900424 a69.23892754015885,69.23892754015885 0 0,0 1.0101657765994914,0.632565716633815 l -25.95279248606677 40.662595741047475" fill="#3aff93" stroke="none" /><line stroke="#e1ed5e" stroke-width="0.3" x1="172.23445277983987" x2="176.4835382374775" y1="55.19839476539836" y2="52.563006222186495" /><path d="M 173.08426987136738 54.67131705675599 a86.0,86.0 0 0,1 12.851231095245387,41.99856678651699" fill="none" id="id51" stroke="none" /><text fill="#e1ed5e" style="font-size:6.75px; font-family:Arial;" text-anchor="middle"><textPath startOffset="22.20632615414155" xlink:href="#id51">March</textPath></text><path d="M 118.73160827565052 90.50648371742162 l 26.982523362693595 -13.675228582575487 a51.2500982445346,51.2500982445346 0 0,0 0.3920388151494571,0.7903263288085396 l -27.21392219079646 13.208742665267998" fill="#95ff23" stroke="none" /><line stroke="#e1ed5e" stroke-width="0.3" x1="184.98032266829074" x2="189.97916517819016" y1="98.17113171792111" y2="98.06355123074" /><path d="M 185.9800911702706 98.14961562048488 a86.0,86.0 0 0,1 -9.607161424134198,41.387399972396054" fill="none" id="id52" stroke="none" /><text fill="#e1ed5e" style="font-size:6.75px; font-family:Arial;" text-anchor="middle"><textPath startOffset="21.466115282336823" xlink:href="#id52">April</textPath></text><path d="M 120.92983693683757 101.71520430193887 l 14.661152980711146 1.2014844042879227 a35.710301543393406,35.710301543393406 0 0,0 -0.055479190710504264,0.6122082464840158 l -14.638299193723567 -1.4536740393205092" fill="#ffa90f" stroke="none" /><path d="M 120.8583938346157 102.4346265915055 l 14.746215574401848 1.7212029289585458 a35.846326592439866,35.846326592439866 0 0,0 -0.07681098074782702,0.6122590915582764 l -14.714403084407174 -1.9747797748042173" fill="#ffaa0f" stroke="none" /><line stroke="#e1ed5e" stroke-width="0.3" x1="174.80103733775053" x2="179.2010983576182" y1="140.37084112569926" y2="142.7455964860345" /><path d="M 175.68104954172406 140.8457921977663 a86.0,86.0 0 0,1 -30.038265399797805,32.042727171017184" fill="none" id="id53" stroke="none" /><text fill="#e1ed5e" style="font-size:6.75px; font-family:Arial;" text-anchor="middle"><textPath startOffset="22.206326154141568" xlink:href="#id53">May</textPath></text><path d="M 118.12598468904814 110.60418214915192 l 3.8933881010554336 2.2777353787503745 a25.5107149500995,25.5107149500995 0 0,0 -0.22500344206521775,0.37711871107511186 l -3.8536037832919887 -2.3444161837115907" fill="#ff1802" stroke="none" /><path d="M 111.7513745106137 117.40417183066458 l 25.07256407775458 37.13329134821353 a65.80529874673775,65.80529874673775 0 0,0 -0.9442286413984482,0.6257832563047863 l -24.429660737616167 -37.55937262560963" fill="#36ff6c" stroke="none" /><line stroke="#e1ed5e" stroke-width="0.3" x1="143.8653032363475" x2="146.44561519142675" y1="172.8068346515853" y2="177.08958963109032" /><path d="M 144.38136562736335 173.6633856474863 a86.0,86.0 0 0,1 -40.68145358897372,12.25698825130547" fill="none" id="id54" stroke="none" /><text fill="#e1ed5e" style="font-size:6.75px; font-family:Arial;" text-anchor="middle"><textPath startOffset="21.466115282336833" xlink:href="#id54">June</textPath></text><path d="M 109.89434966115114 118.52300852407294 l 5.819575979631564 10.89470851231916 a33.35160467919469,33.35160467919469 0 0,0 -0.5087058282898075,0.26613084643898843 l -5.63117924881526 -10.993268777702864" fill="#ff880c" stroke="none" /><path d="M 106.91757812671514 119.82793768551818 l 1.1722000480230113 3.359891147076711 a24.558499890795222,24.558499890795222 0 0,0 -0.4003389441084291,0.13581670588474898 l -1.1141913709773552 -3.379570839859583" fill="#ff0a01" stroke="none" /><path d="M 105.88484417918355 120.15858648285463 l 4.208406503083954 14.415934197121867 a36.01765108367307,36.01765108367307 0 0,0 -0.596638962385392,0.16861613043562368 l -3.9596363725939563 -14.486239120896009" fill="#ffad10" stroke="none" /><path d="M 101.62511606390274 120.93702456842531 l 1.146483724244756 14.770611425848854 a35.81503921099687,35.81503921099687 0 0,0 -0.6150588982689652,0.042418062685316775 l -0.8920620651968607 -14.788157833050455" fill="#ffaa0f" stroke="none" /><line stroke="#e1ed5e" stroke-width="0.3" x1="102.19456741930631" x2="102.32365962044197" y1="184.97166512339345" y2="189.96999836594603" /><path d="M 102.22038585953345 185.97133177190398 a86.0,86.0 0 0,1 -42.740103519485714,-10.115201625700543" fill="none" id="id55" stroke="none" /><text fill="#e1ed5e" style="font-size:6.75px; font-family:Arial;" text-anchor="middle"><textPath startOffset="22.20632615414155" xlink:href="#id55">July</textPath></text><path d="M 98.73552117531835 120.96189622390904 l -0.22545584638854183 3.7374940274385593 a24.74428790877647,24.74428790877647 0 0,0 -0.4249386513291642,-0.02930625733604472 l 0.2897572584966361 -3.7330594255862297" fill="#ff0d01" stroke="none" /><path d="M 97.65516085044442 120.86867818915974 l -3.001793324601337 26.71546101289977 a47.883575288554695,47.883575288554695 0 0,0 -0.8182905741579256,-0.09908359270971943 l 3.4612113218106524 -26.6598318914647" fill="#bcff1f" stroke="none" /><path d="M 97.2962882734958 120.8252237178851 l -2.813738855498693 21.672702964243083 a42.85459174002695,42.85459174002695 0 0,0 -0.7307144780221259,-0.10127036836837439 l 3.18638192470765 -21.621058030382105" fill="#f9ff18" stroke="none" /><path d="M 96.93821686468263 120.77559828337769 l -0.4604675657791614 3.124482938978974 a24.158231152893226,24.158231152893226 0 0,0 -0.4108787507842346,-0.06417081072420308 l 0.5141821801719132 -3.1160938209076656" fill="#ff0400" stroke="none" /><path d="M 91.40352486487194 119.15986991738527 l -2.3276262220413964 5.187825815766031 a26.68606898694196,26.68606898694196 0 0,0 -0.4174870347318549,-0.19164782119941512 l 2.416581252540671 -5.146990924232542" fill="#ff2a04" stroke="none" /><path d="M 91.07499286063937 119.00905698771935 l -1.2297049992844187 2.619105177674453 a23.89342121319835,23.89342121319835 0 0,0 -0.370788728167411,-0.17800112231426285 l 1.2746063954520717 -2.597549778860628" fill="#ff0000" stroke="none" /><line stroke="#e1ed5e" stroke-width="0.3" x1="58.666819895761336" x2="56.23545636021788" y1="174.27360380694188" y2="178.64263932499728" /><path d="M 58.180547188652646 175.14741091055294 a86.0,86.0 0 0,1 -31.652253787137756,-30.449443065178592" fill="none" id="id56" stroke="none" /><text fill="#e1ed5e" style="font-size:6.75px; font-family:Arial;" text-anchor="middle"><textPath startOffset="22.20632615414155" xlink:href="#id56">August</textPath></text><path d="M 88.24862548938628 117.40417183066458 l -16.044009970921543 23.76170601444235 a49.67104687073382,49.67104687073382 0 0,0 -0.7044847306677047,-0.48455102158798063 l 16.450651586212135 -23.482014203489268" fill="#a7ff21" stroke="none" /><path d="M 86.51685102203217 116.09983520530335 l -2.8214567047664576 3.369019215011639 a25.39441786906858,25.39441786906858 0 0,0 -0.33270862180996486,-0.28354150546585866 l 2.879030803153479 -3.3199533193228286" fill="#ff1602" stroke="none" /><path d="M 86.24171649860922 115.8653595955263 l -19.554579153450085 22.549355810069372 a50.84719439608443,50.84719439608443 0 0,0 -0.6563105178239993,-0.5791177240642456 l 19.93983202418067 -22.209414944232837" fill="#9aff23" stroke="none" /><path d="M 85.97065885151581 115.62618273729859 l -7.4698512392934155 8.320081410112895 a32.18134304133808,32.18134304133808 0 0,0 -0.4090102360235637,-0.37362115306842775 l 7.611961024783834 -8.19026749045789" fill="#ff780b" stroke="none" /><path d="M 85.18274418774928 114.88116024355367 l -5.65974062182384 5.684150169066774 a29.021360673278863,29.021360673278863 0 0,0 -0.3509641246011347,-0.35552480527698505 l 5.756745371480507 -5.5858848698091235" fill="#ff4c07" stroke="none" /><line stroke="#e1ed5e" stroke-width="0.3" x1="26.63291911575756" x2="22.317208475507996" y1="142.92168965132927" y2="145.44649492493687" /><path d="M 25.769776987707644 143.4266507060508 a86.0,86.0 0 0,1 -11.730757126820373,-40.83630448921669" fill="none" id="id57" stroke="none" /><text fill="#e1ed5e" style="font-size:6.75px; font-family:Arial;" text-anchor="middle"><textPath startOffset="21.46611528233685" xlink:href="#id57">September</textPath></text><path d="M 80.45479744820244 107.68017299344265 l -15.474035304529703 6.080431642009113 a37.62580577172058,37.62580577172058 0 0,0 -0.23167771053271585,-0.6048373955926579 l 15.576407294655928 -5.813170679583298" fill="#ffc212" stroke="none" /><path d="M 80.20201598880116 107.00284435728193 l -23.175643439780337 8.197573237600375 a45.58273084573102,45.58273084573102 0 0,0 -0.25528319514785214,-0.7419724605144935 l 23.31331746587142 -7.797428073996585" fill="#d8ff1c" stroke="none" /><path d="M 79.07016306316243 101.71520430193888 l -14.387672454824745 1.179072620769862 a35.43590422912163,35.43590422912163 0 0,0 -0.04458754936068698,-0.6083616860536379 l 14.405836562849768 -0.9312377982194635" fill="#ffa50f" stroke="none" /><path d="M 79.04373962182676 101.35467743843564 l -14.770821754324949 0.9548315690226511 a35.801651212727634,35.801651212727634 0 0,0 -0.03446104834576448,-0.6153251678365278 l 14.785069153558245 -0.7004346848506857" fill="#ffaa0f" stroke="none" /><path d="M 79.0235259727143 100.99374915477108 l -14.491492897674409 0.6865266679091382 a35.50774569907738,35.50774569907738 0 0,0 -0.023668224145191864,-0.6107716977975071 l 14.501163254670802 -0.4369777230976344" fill="#ffa60f" stroke="none" /><line stroke="#e1ed5e" stroke-width="0.3" x1="15.007084014347285" x2="10.007500721073583" y1="101.09737516637583" y2="101.16192664675087" /><path d="M 14.007167355692545 101.11028546245083 a86.0,86.0 0 0,1 10.666146001902534,-42.60595125391555" fill="none" id="id58" stroke="none" /><text fill="#e1ed5e" style="font-size:6.75px; font-family:Arial;" text-anchor="middle"><textPath startOffset="22.20632615414155" xlink:href="#id58">October</textPath></text><path d="M 79.00175016825051 100.2711162175752 l -29.61651602227086 0.3823898594430869 a50.61898450828508,50.61898450828508 0 0,0 -0.0037499091143878135,-0.8713468153666688 l 29.618710228674754 0.1274664341272573" fill="#9cff22" stroke="none" /><path d="M 79.01574976396665 99.18683210126434 l -17.305852407173102 -0.6706250392308724 a38.31884134352245,38.31884134352245 0 0,0 0.031214148193366573,-0.6588813341057623 l 17.29174465074624 0.9684174799596438" fill="#ffcb12" stroke="none" /><path d="M 79.08570108090925 98.10471618934814 l -14.478676106629132 -1.3120784268564432 a35.53800576416502,35.53800576416502 0 0,0 0.060453319686547616,-0.6087566792065314 l 14.453945661260356 1.561110636767405" fill="#ffa60f" stroke="none" /><path d="M 79.16333360222342 97.38593545837743 l -14.628297548267307 -1.8351934611435847 a35.74296524449771,35.74296524449771 0 0,0 0.08184117973772569,-0.6098118498725665 l 14.594540369471746 2.0867236530808104" fill="#ffa90f" stroke="none" /><path d="M 79.3925641242962 95.95851677861259 l -28.512917994013172 -5.591888304816274 a50.056078664314995,50.056078664314995 0 0,0 0.17310036553985586,-0.8440988577158884 l 28.41243833255832 6.081862818695566" fill="#a3ff22" stroke="none" /><path d="M 79.54389044137918 95.25157060432595 l -28.551236507953874 -6.627532489924283 a50.31036153032098,50.31036153032098 0 0,0 0.2030794507043495,-0.8418954305861782 l 28.432924256988713 7.118013152169858" fill="#a0ff22" stroke="none" /><path d="M 79.62865764111835 94.90015583598534 l -5.1729296659073665 -1.2950121156858425 a26.332565771577283,26.332565771577283 0 0,0 0.11386159825360036,-0.43875518514021583 l 5.149871735783459 1.3838637263749223" fill="#ff2403" stroke="none" /><path d="M 79.71946130924805 94.55025226153421 l -14.057719497843708 -3.7775636145353104 a35.55642347357057,35.55642347357057 0 0,0 0.16392058017078207,-0.5897095422235242 l 13.990612147106566 4.018984460177777" fill="#ffa60f" stroke="none" /><path d="M 79.91906864156998 93.8553929516997 l -14.099351722227931 -4.314290727979468 a35.74465406418955,35.74465406418955 0 0,0 0.18509691019443802,-0.5868077876083206 l 14.02299932826529 4.556348682014204" fill="#ffa90f" stroke="none" /><path d="M 80.2630227832202 92.82701384747504 l -27.475802714812087 -9.985498297849785 a50.23405396245338,50.23405396245338 0 0,0 0.30235018675313047,-0.8101481814429758 l 27.29984793955733 10.456969616322102" fill="#a1ff22" stroke="none" /><path d="M 80.38941819471856 92.48833698450439 l -27.18526726373682 -10.41308048374065 a50.1113551962402,50.1113551962402 0 0,0 0.31547830386250425,-0.8028578724665177 l 27.001995409992624 10.87948736110293" fill="#a2ff22" stroke="none" /><path d="M 80.52162464483688 92.15188598940014 l -13.892911165632162 -5.597651178752725 a35.978206814406676,35.978206814406676 0 0,0 0.2363910611957746,-0.5724397050563445 l 13.794498417550187 5.835965454262381" fill="#ffac0f" stroke="none" /><path d="M 80.803312248108 91.48605970444005 l -13.516774950355181 -5.994837047057868 a35.78652346832503,35.78652346832503 0 0,0 0.2545916042906857,-0.560958852658539 l 13.411581029101145 6.226617908558478" fill="#ffaa0f" stroke="none" /><path d="M 80.95270993114464 91.15688171328213 l -12.666948338777862 -5.880906002199011 a34.96555174792488,34.96555174792488 0 0,0 0.25814868077704645,-0.543726957838015 l 12.563841464159065 6.098075375677558" fill="#ff9e0e" stroke="none" /><path d="M 81.10775173730289 90.83032412892265 l -26.289190273236283 -12.759908210323346 a50.22219674764884,50.22219674764884 0 0,0 0.38417585880921257,-0.7744750886307008 l 26.065654401473655 13.210542887453009" fill="#a1ff22" stroke="none" /><path d="M 81.26839172434947 90.50648371742162 l -25.405280064851667 -12.875853285521321 a49.48185129172294,49.48185129172294 0 0,0 0.3915912816408752,-0.7564297151286056 l 25.179879350050676 13.311255722910262" fill="#a9ff21" stroke="none" /><path d="M 81.43458229118936 90.18545643968196 l -26.526886581126085 -14.023346415013519 a51.00549876878236,51.00549876878236 0 0,0 0.41701100161533994,-0.7726580529981818 l 26.281567480292274 14.477885451344173" fill="#98ff23" stroke="none" /><path d="M 81.6062741919709 89.86733742301443 l -5.822577850719097 -3.2075185476459014 a27.647600173083298,27.647600173083298 0 0,0 0.2332171955839894,-0.41486736786992623 l 5.7665030138426765 3.3072694254506123" fill="#ff3805" stroke="none" /><line stroke="#e1ed5e" stroke-width="0.3" x1="26.266209847984243" x2="21.928928074336255" y1="57.711370442889674" y2="55.22380399835377" /><path d="M 25.398753493254645 57.213857153982495 a86.0,86.0 0 0,1 29.58750427330803,-30.492523968695096" fill="none" id="id59" stroke="none" /><text fill="#e1ed5e" style="font-size:6.75px; font-family:Arial;" text-anchor="middle"><textPath startOffset="21.46611528233685" xlink:href="#id59">November</textPath></text><path d="M 81.78341655067845 89.55222093294921 l -20.567704995072273 -11.796220641626148 a44.71036292826931,44.71036292826931 0 0,0 0.3886402001655331,-0.6643120816547314 l 20.361605120436415 12.148512135634771" fill="#e2ff1b" stroke="none" /><path d="M 82.34701348167596 88.62581576622439 l -5.209717515675578 -3.356728719399005 a27.197482092654646,27.197482092654646 0 0,0 0.2569558074750188,-0.39136132350910063 l 5.151165072842639 3.445908106885773" fill="#ff3104" stroke="none" /><path d="M 82.54541684631803 88.32363383020206 l -26.46368222470092 -17.703066360057917 a52.83904890913932,52.83904890913932 0 0,0 0.5122256007254095,-0.7516278637452037 l 26.15503215830677 18.15597224707354" fill="#84ff25" stroke="none" /><path d="M 82.7489923806493 88.02491185347247 l -51.47997397114357 -35.73572278722289 a83.66761207509714,83.66761207509714 0 0,0 0.8314464176770202,-1.1760219935756633 l 50.857214933662675 36.61657128113034" fill="#4dd5ff" stroke="none" /><path d="M 82.95767976084542 87.72973835380427 l -3.102978060432006 -2.2341061633397885 a24.823572046214796,24.823572046214796 0 0,0 0.25265359224940714,-0.34461921589037653 l 3.064061855668965 2.287187822901666" fill="#ff0e01" stroke="none" /><path d="M 83.17141714833178 87.43820079747576 l -17.05362827746473 -12.729785745135699 a42.28082899097224,42.28082899097224 0 0,0 0.4403730746474116,-0.5794793462844126 l 16.831979262593208 13.021449867301138" fill="#fffe18" stroke="none" /><path d="M 83.39014120810768 87.1503855733568 l -30.751716895388487 -23.789949692763958 a59.87968362009086,59.87968362009086 0 0,0 0.6377069950932073,-0.8098231236090908 l 30.337655819701308 24.315765210326095" fill="#39ff2e" stroke="none" /><path d="M 83.84228863543731 86.58626213691792 l -2.2503884545188413 -1.8682176044576926 a23.924805158269066,23.924805158269066 0 0,0 0.2657811008482227,-0.3146009917296746 l 2.2178967401834946 1.906677545816483" fill="#ff0000" stroke="none" /><path d="M 84.07557802195018 86.31012108654704 l -30.939779002245185 -26.598254475645504 a61.80118951524536,61.80118951524536 0 0,0 0.7004374259617173,-0.8007210607262875 l 30.477349712705625 27.126891092574734" fill="#31ff3b" stroke="none" /><path d="M 84.31358615837235 86.03803664274999 l -46.768103952555684 -41.62675805102233 a83.61024303702555,83.61024303702555 0 0,0 0.9661217705986808,-1.0668157894040957 l 46.04463854134095 42.42562662769598" fill="#4dd6ff" stroke="none" /><path d="M 84.80347519578584 85.50635884689758 l -12.600895614959972 -12.018067393953489 a38.41311328237215,38.41311328237215 0 0,0 0.46047396931397505,-0.4745589021826881 l 12.392157381942878 12.2331904916863" fill="#ffcc13" stroke="none" /><path d="M 85.57189188830299 84.74124197986013 l -10.224766807818549 -10.813423445751448 a35.88206917372027,35.88206917372027 0 0,0 0.4524423347775594,-0.42049584122880096 l 10.037116589246134 10.987823873054896" fill="#ffab0f" stroke="none" /><path d="M 86.37877921826538 84.01681056812374 l -4.111654296388072 -4.8246299322658475 a27.33898690930357,27.33898690930357 0 0,0 0.36079972233747765,-0.3021593914130987 l 4.027997037091484 4.894690481072758" fill="#ff3304" stroke="none" /><path d="M 86.65592168130627 83.78471172551755 l -9.160671935464622 -11.13174943026421 a35.41644046522569,35.41644046522569 0 0,0 0.4740686214151259,-0.383330522588266 l 8.967699915484996 11.28778605011661" fill="#ffa50f" stroke="none" /><path d="M 87.22198572758235 83.33499621200491 l -1.766564295854783 -2.3039417592219285 a23.903256282396637,23.903256282396637 0 0,0 0.32867415186861704,-0.2475505570576778 l 1.726643990227776 2.3340089057854603" fill="#ff0000" stroke="none" /><path d="M 87.51073957382395 83.11751280151077 l -1.7737999802305278 -2.397752503915978 a23.982546469026286,23.982546469026286 0 0,0 0.3339908590776101,-0.24265856308492978 l 1.7322638047991359 2.4279303018175757" fill="#ff0100" stroke="none" /><path d="M 87.80319425747018 82.90503203632743 l -14.852755641557975 -20.817531017922555 a46.57291433978536,46.57291433978536 0 0,0 0.6566090321356219,-0.45999658812990546 l 14.492215469838692 21.070112448816403" fill="#ccff1d" stroke="none" /><path d="M 88.09926311788651 82.69761687909137 l -16.53137795856176 -24.034833959355847 a50.17121356170543,50.17121356170543 0 0,0 0.715764764714948,-0.48328756424060254 l 16.11520849944027 24.315833435895115" fill="#a2ff22" stroke="none" /><path d="M 88.39885842347998 82.49532879139004 l -2.369821733383079 -3.5757645049214632 a25.289772353245684,25.289772353245684 0 0,0 0.36493499683058794,-0.2373638732659606 l 2.307919710768204 3.616027302346959" fill="#ff1502" stroke="none" /><path d="M 89.00827224532344 82.1063720568725 l -4.007762811777 -6.524307937642365 a28.656941740711225,28.656941740711225 0 0,0 0.4225369632911918,-0.2545737925845951 l 3.8948637822681587 6.592328339685579" fill="#ff4606" stroke="none" /><line stroke="#e1ed5e" stroke-width="0.3" x1="56.762969772571076" x2="54.21961505331055" y1="26.818313649435495" y2="22.513508569990535" /><path d="M 56.25429882871897 25.957352633546506 a86.0,86.0 0 0,1 42.265352541879196,-11.944610805530505" fill="none" id="id60" stroke="none" /><text fill="#e1ed5e" style="font-size:6.75px; font-family:Arial;" text-anchor="middle"><textPath startOffset="22.20632615414155" xlink:href="#id60">December</textPath></text><path d="M 89.94658935756843 81.56283822128135 l -13.767704314188288 -25.24888326861954 a49.758577649030116,49.758577649030116 0 0,0 0.7555128076713907,-0.40356877679259023 l 13.331046459988592 25.48213077191388" fill="#a6ff21" stroke="none" /><path d="M 90.58718382345135 81.22770947309562 l -3.611795711877134 -7.203123608862995 a29.05791896142506,29.05791896142506 0 0,0 0.4490537916126187,-0.22034874532510623 l 3.487270653254089 7.264227514322931" fill="#ff4c07" stroke="none" /><path d="M 91.23893434514133 80.91482961587045 l -6.0448428496558675 -13.168130485015803 a35.48929900124358,35.48929900124358 0 0,0 0.5573812101756846,-0.2500807017335288 l 5.8172795210134085 13.270231517265861" fill="#ffa60f" stroke="none" /><path d="M 92.23578459929587 80.48803036053334 l -8.65003664829512 -21.738095061930114 a44.3958951728366,44.3958951728366 0 0,0 0.7124840037216923,-0.2764327243408872 l 8.274569479573753 21.883770490161552" fill="#e6ff1a" stroke="none" /><path d="M 94.98787191387505 79.60689891045804 l -15.036384258374849 -61.17930326862588 a84.0,84.0 0 0,0 1.407105252149864,-0.3330163514365161 l 13.98105531926245 61.42906553220327" fill="#4dd2ff" stroke="none" /><path d="M 99.27714615592234 79.0124445844662 l -0.4745517114396099 -13.778276788558063 a34.786446626631104,34.786446626631104 0 0,0 0.5986140603371158,-0.015460435095002873 l 0.23731101590761505 13.784404015795426" fill="#ff9c0e" stroke="none" /></svg>